solid AutoCAD
   facet normal 0.0000000e+00 1.0000000e+00 -0.0000000e+00
      outer loop
         vertex 3.0000000e+01 2.8000000e+01 1.0000000e-06
         vertex 1.0000000e+01 2.8000000e+01 1.0000000e-06
         vertex 3.0000000e+01 2.8000000e+01 4.0000010e+00
      endloop
   endfacet
   facet normal 0.0000000e+00 1.0000000e+00 -0.0000000e+00
      outer loop
         vertex 3.0000000e+01 2.8000000e+01 4.0000010e+00
         vertex 1.0000000e+01 2.8000000e+01 1.0000000e-06
         vertex 1.0000000e+01 2.8000000e+01 4.0000010e+00
      endloop
   endfacet
   facet normal -1.3052619e-01 -9.9144486e-01 -0.0000000e+00
      outer loop
         vertex 3.0000000e+01 3.2000000e+01 4.0000010e+00
         vertex 3.0000000e+01 3.2000000e+01 1.0000000e-06
         vertex 3.0517638e+01 3.1931852e+01 4.0000010e+00
      endloop
   endfacet
   facet normal -1.3052619e-01 -9.9144486e-01 0.0000000e+00
      outer loop
         vertex 3.0517638e+01 3.1931852e+01 4.0000010e+00
         vertex 3.0000000e+01 3.2000000e+01 1.0000000e-06
         vertex 3.0517638e+01 3.1931852e+01 1.0000000e-06
      endloop
   endfacet
   facet normal -3.8268343e-01 -9.2387953e-01 -0.0000000e+00
      outer loop
         vertex 3.0517638e+01 3.1931852e+01 4.0000010e+00
         vertex 3.0517638e+01 3.1931852e+01 1.0000000e-06
         vertex 3.1000000e+01 3.1732051e+01 4.0000010e+00
      endloop
   endfacet
   facet normal -3.8268343e-01 -9.2387953e-01 0.0000000e+00
      outer loop
         vertex 3.1000000e+01 3.1732051e+01 4.0000010e+00
         vertex 3.0517638e+01 3.1931852e+01 1.0000000e-06
         vertex 3.1000000e+01 3.1732051e+01 1.0000000e-06
      endloop
   endfacet
   facet normal -6.0876143e-01 -7.9335334e-01 -0.0000000e+00
      outer loop
         vertex 3.1000000e+01 3.1732051e+01 4.0000010e+00
         vertex 3.1000000e+01 3.1732051e+01 1.0000000e-06
         vertex 3.1414214e+01 3.1414214e+01 4.0000010e+00
      endloop
   endfacet
   facet normal -6.0876143e-01 -7.9335334e-01 0.0000000e+00
      outer loop
         vertex 3.1414214e+01 3.1414214e+01 4.0000010e+00
         vertex 3.1000000e+01 3.1732051e+01 1.0000000e-06
         vertex 3.1414214e+01 3.1414214e+01 1.0000000e-06
      endloop
   endfacet
   facet normal -7.9335334e-01 -6.0876143e-01 -0.0000000e+00
      outer loop
         vertex 3.1414214e+01 3.1414214e+01 4.0000010e+00
         vertex 3.1414214e+01 3.1414214e+01 1.0000000e-06
         vertex 3.1732051e+01 3.1000000e+01 4.0000010e+00
      endloop
   endfacet
   facet normal -7.9335334e-01 -6.0876143e-01 0.0000000e+00
      outer loop
         vertex 3.1732051e+01 3.1000000e+01 4.0000010e+00
         vertex 3.1414214e+01 3.1414214e+01 1.0000000e-06
         vertex 3.1732051e+01 3.1000000e+01 1.0000000e-06
      endloop
   endfacet
   facet normal -9.2387953e-01 -3.8268343e-01 -0.0000000e+00
      outer loop
         vertex 3.1732051e+01 3.1000000e+01 4.0000010e+00
         vertex 3.1732051e+01 3.1000000e+01 1.0000000e-06
         vertex 3.1931852e+01 3.0517638e+01 4.0000010e+00
      endloop
   endfacet
   facet normal -9.2387953e-01 -3.8268343e-01 0.0000000e+00
      outer loop
         vertex 3.1931852e+01 3.0517638e+01 4.0000010e+00
         vertex 3.1732051e+01 3.1000000e+01 1.0000000e-06
         vertex 3.1931852e+01 3.0517638e+01 1.0000000e-06
      endloop
   endfacet
   facet normal -9.9144486e-01 -1.3052619e-01 -0.0000000e+00
      outer loop
         vertex 3.1931852e+01 3.0517638e+01 4.0000010e+00
         vertex 3.1931852e+01 3.0517638e+01 1.0000000e-06
         vertex 3.2000000e+01 3.0000000e+01 4.0000010e+00
      endloop
   endfacet
   facet normal -9.9144486e-01 -1.3052619e-01 0.0000000e+00
      outer loop
         vertex 3.2000000e+01 3.0000000e+01 4.0000010e+00
         vertex 3.1931852e+01 3.0517638e+01 1.0000000e-06
         vertex 3.2000000e+01 3.0000000e+01 1.0000000e-06
      endloop
   endfacet
   facet normal -9.9144486e-01 1.3052619e-01 0.0000000e+00
      outer loop
         vertex 3.2000000e+01 3.0000000e+01 4.0000010e+00
         vertex 3.2000000e+01 3.0000000e+01 1.0000000e-06
         vertex 3.1931852e+01 2.9482362e+01 4.0000010e+00
      endloop
   endfacet
   facet normal -9.9144486e-01 1.3052619e-01 0.0000000e+00
      outer loop
         vertex 3.1931852e+01 2.9482362e+01 4.0000010e+00
         vertex 3.2000000e+01 3.0000000e+01 1.0000000e-06
         vertex 3.1931852e+01 2.9482362e+01 1.0000000e-06
      endloop
   endfacet
   facet normal -9.2387953e-01 3.8268343e-01 0.0000000e+00
      outer loop
         vertex 3.1931852e+01 2.9482362e+01 4.0000010e+00
         vertex 3.1931852e+01 2.9482362e+01 1.0000000e-06
         vertex 3.1732051e+01 2.9000000e+01 4.0000010e+00
      endloop
   endfacet
   facet normal -9.2387953e-01 3.8268343e-01 0.0000000e+00
      outer loop
         vertex 3.1732051e+01 2.9000000e+01 4.0000010e+00
         vertex 3.1931852e+01 2.9482362e+01 1.0000000e-06
         vertex 3.1732051e+01 2.9000000e+01 1.0000000e-06
      endloop
   endfacet
   facet normal -7.9335334e-01 6.0876143e-01 0.0000000e+00
      outer loop
         vertex 3.1732051e+01 2.9000000e+01 4.0000010e+00
         vertex 3.1732051e+01 2.9000000e+01 1.0000000e-06
         vertex 3.1414214e+01 2.8585786e+01 4.0000010e+00
      endloop
   endfacet
   facet normal -7.9335334e-01 6.0876143e-01 0.0000000e+00
      outer loop
         vertex 3.1414214e+01 2.8585786e+01 4.0000010e+00
         vertex 3.1732051e+01 2.9000000e+01 1.0000000e-06
         vertex 3.1414214e+01 2.8585786e+01 1.0000000e-06
      endloop
   endfacet
   facet normal -6.0876143e-01 7.9335334e-01 0.0000000e+00
      outer loop
         vertex 3.1414214e+01 2.8585786e+01 4.0000010e+00
         vertex 3.1414214e+01 2.8585786e+01 1.0000000e-06
         vertex 3.1000000e+01 2.8267949e+01 4.0000010e+00
      endloop
   endfacet
   facet normal -6.0876143e-01 7.9335334e-01 0.0000000e+00
      outer loop
         vertex 3.1000000e+01 2.8267949e+01 4.0000010e+00
         vertex 3.1414214e+01 2.8585786e+01 1.0000000e-06
         vertex 3.1000000e+01 2.8267949e+01 1.0000000e-06
      endloop
   endfacet
   facet normal -3.8268343e-01 9.2387953e-01 0.0000000e+00
      outer loop
         vertex 3.1000000e+01 2.8267949e+01 4.0000010e+00
         vertex 3.1000000e+01 2.8267949e+01 1.0000000e-06
         vertex 3.0517638e+01 2.8068148e+01 4.0000010e+00
      endloop
   endfacet
   facet normal -3.8268343e-01 9.2387953e-01 0.0000000e+00
      outer loop
         vertex 3.0517638e+01 2.8068148e+01 4.0000010e+00
         vertex 3.1000000e+01 2.8267949e+01 1.0000000e-06
         vertex 3.0517638e+01 2.8068148e+01 1.0000000e-06
      endloop
   endfacet
   facet normal -1.3052619e-01 9.9144486e-01 0.0000000e+00
      outer loop
         vertex 3.0517638e+01 2.8068148e+01 4.0000010e+00
         vertex 3.0517638e+01 2.8068148e+01 1.0000000e-06
         vertex 3.0000000e+01 2.8000000e+01 4.0000010e+00
      endloop
   endfacet
   facet normal -1.3052619e-01 9.9144486e-01 0.0000000e+00
      outer loop
         vertex 3.0000000e+01 2.8000000e+01 4.0000010e+00
         vertex 3.0517638e+01 2.8068148e+01 1.0000000e-06
         vertex 3.0000000e+01 2.8000000e+01 1.0000000e-06
      endloop
   endfacet
   facet normal -1.4210855e-15 -1.0000000e+00 0.0000000e+00
      outer loop
         vertex 1.0000000e+01 3.2000000e+01 1.0000000e-06
         vertex 3.0000000e+01 3.2000000e+01 1.0000000e-06
         vertex 1.0000000e+01 3.2000000e+01 4.0000010e+00
      endloop
   endfacet
   facet normal -1.4210855e-15 -1.0000000e+00 0.0000000e+00
      outer loop
         vertex 1.0000000e+01 3.2000000e+01 4.0000010e+00
         vertex 3.0000000e+01 3.2000000e+01 1.0000000e-06
         vertex 3.0000000e+01 3.2000000e+01 4.0000010e+00
      endloop
   endfacet
   facet normal 1.3052619e-01 9.9144486e-01 0.0000000e+00
      outer loop
         vertex 1.0000000e+01 2.8000000e+01 4.0000010e+00
         vertex 1.0000000e+01 2.8000000e+01 1.0000000e-06
         vertex 9.4823619e+00 2.8068148e+01 4.0000010e+00
      endloop
   endfacet
   facet normal 1.3052619e-01 9.9144486e-01 0.0000000e+00
      outer loop
         vertex 9.4823619e+00 2.8068148e+01 4.0000010e+00
         vertex 1.0000000e+01 2.8000000e+01 1.0000000e-06
         vertex 9.4823619e+00 2.8068148e+01 1.0000000e-06
      endloop
   endfacet
   facet normal 3.8268343e-01 9.2387953e-01 0.0000000e+00
      outer loop
         vertex 9.4823619e+00 2.8068148e+01 4.0000010e+00
         vertex 9.4823619e+00 2.8068148e+01 1.0000000e-06
         vertex 9.0000000e+00 2.8267949e+01 4.0000010e+00
      endloop
   endfacet
   facet normal 3.8268343e-01 9.2387953e-01 0.0000000e+00
      outer loop
         vertex 9.0000000e+00 2.8267949e+01 4.0000010e+00
         vertex 9.4823619e+00 2.8068148e+01 1.0000000e-06
         vertex 9.0000000e+00 2.8267949e+01 1.0000000e-06
      endloop
   endfacet
   facet normal 6.0876143e-01 7.9335334e-01 0.0000000e+00
      outer loop
         vertex 9.0000000e+00 2.8267949e+01 4.0000010e+00
         vertex 9.0000000e+00 2.8267949e+01 1.0000000e-06
         vertex 8.5857864e+00 2.8585786e+01 4.0000010e+00
      endloop
   endfacet
   facet normal 6.0876143e-01 7.9335334e-01 0.0000000e+00
      outer loop
         vertex 8.5857864e+00 2.8585786e+01 4.0000010e+00
         vertex 9.0000000e+00 2.8267949e+01 1.0000000e-06
         vertex 8.5857864e+00 2.8585786e+01 1.0000000e-06
      endloop
   endfacet
   facet normal 7.9335334e-01 6.0876143e-01 0.0000000e+00
      outer loop
         vertex 8.5857864e+00 2.8585786e+01 4.0000010e+00
         vertex 8.5857864e+00 2.8585786e+01 1.0000000e-06
         vertex 8.2679492e+00 2.9000000e+01 4.0000010e+00
      endloop
   endfacet
   facet normal 7.9335334e-01 6.0876143e-01 0.0000000e+00
      outer loop
         vertex 8.2679492e+00 2.9000000e+01 4.0000010e+00
         vertex 8.5857864e+00 2.8585786e+01 1.0000000e-06
         vertex 8.2679492e+00 2.9000000e+01 1.0000000e-06
      endloop
   endfacet
   facet normal 9.2387953e-01 3.8268343e-01 0.0000000e+00
      outer loop
         vertex 8.2679492e+00 2.9000000e+01 4.0000010e+00
         vertex 8.2679492e+00 2.9000000e+01 1.0000000e-06
         vertex 8.0681483e+00 2.9482362e+01 4.0000010e+00
      endloop
   endfacet
   facet normal 9.2387953e-01 3.8268343e-01 0.0000000e+00
      outer loop
         vertex 8.0681483e+00 2.9482362e+01 4.0000010e+00
         vertex 8.2679492e+00 2.9000000e+01 1.0000000e-06
         vertex 8.0681483e+00 2.9482362e+01 1.0000000e-06
      endloop
   endfacet
   facet normal 9.9144486e-01 1.3052619e-01 0.0000000e+00
      outer loop
         vertex 8.0681483e+00 2.9482362e+01 4.0000010e+00
         vertex 8.0681483e+00 2.9482362e+01 1.0000000e-06
         vertex 8.0000000e+00 3.0000000e+01 4.0000010e+00
      endloop
   endfacet
   facet normal 9.9144486e-01 1.3052619e-01 0.0000000e+00
      outer loop
         vertex 8.0000000e+00 3.0000000e+01 4.0000010e+00
         vertex 8.0681483e+00 2.9482362e+01 1.0000000e-06
         vertex 8.0000000e+00 3.0000000e+01 1.0000000e-06
      endloop
   endfacet
   facet normal 9.9144486e-01 -1.3052619e-01 0.0000000e+00
      outer loop
         vertex 8.0000000e+00 3.0000000e+01 4.0000010e+00
         vertex 8.0000000e+00 3.0000000e+01 1.0000000e-06
         vertex 8.0681483e+00 3.0517638e+01 4.0000010e+00
      endloop
   endfacet
   facet normal 9.9144486e-01 -1.3052619e-01 0.0000000e+00
      outer loop
         vertex 8.0681483e+00 3.0517638e+01 4.0000010e+00
         vertex 8.0000000e+00 3.0000000e+01 1.0000000e-06
         vertex 8.0681483e+00 3.0517638e+01 1.0000000e-06
      endloop
   endfacet
   facet normal 9.2387953e-01 -3.8268343e-01 0.0000000e+00
      outer loop
         vertex 8.0681483e+00 3.0517638e+01 4.0000010e+00
         vertex 8.0681483e+00 3.0517638e+01 1.0000000e-06
         vertex 8.2679492e+00 3.1000000e+01 4.0000010e+00
      endloop
   endfacet
   facet normal 9.2387953e-01 -3.8268343e-01 0.0000000e+00
      outer loop
         vertex 8.2679492e+00 3.1000000e+01 4.0000010e+00
         vertex 8.0681483e+00 3.0517638e+01 1.0000000e-06
         vertex 8.2679492e+00 3.1000000e+01 1.0000000e-06
      endloop
   endfacet
   facet normal 7.9335334e-01 -6.0876143e-01 0.0000000e+00
      outer loop
         vertex 8.2679492e+00 3.1000000e+01 4.0000010e+00
         vertex 8.2679492e+00 3.1000000e+01 1.0000000e-06
         vertex 8.5857864e+00 3.1414214e+01 4.0000010e+00
      endloop
   endfacet
   facet normal 7.9335334e-01 -6.0876143e-01 0.0000000e+00
      outer loop
         vertex 8.5857864e+00 3.1414214e+01 4.0000010e+00
         vertex 8.2679492e+00 3.1000000e+01 1.0000000e-06
         vertex 8.5857864e+00 3.1414214e+01 1.0000000e-06
      endloop
   endfacet
   facet normal 6.0876143e-01 -7.9335334e-01 0.0000000e+00
      outer loop
         vertex 8.5857864e+00 3.1414214e+01 4.0000010e+00
         vertex 8.5857864e+00 3.1414214e+01 1.0000000e-06
         vertex 9.0000000e+00 3.1732051e+01 4.0000010e+00
      endloop
   endfacet
   facet normal 6.0876143e-01 -7.9335334e-01 0.0000000e+00
      outer loop
         vertex 9.0000000e+00 3.1732051e+01 4.0000010e+00
         vertex 8.5857864e+00 3.1414214e+01 1.0000000e-06
         vertex 9.0000000e+00 3.1732051e+01 1.0000000e-06
      endloop
   endfacet
   facet normal 3.8268343e-01 -9.2387953e-01 0.0000000e+00
      outer loop
         vertex 9.0000000e+00 3.1732051e+01 4.0000010e+00
         vertex 9.0000000e+00 3.1732051e+01 1.0000000e-06
         vertex 9.4823619e+00 3.1931852e+01 4.0000010e+00
      endloop
   endfacet
   facet normal 3.8268343e-01 -9.2387953e-01 0.0000000e+00
      outer loop
         vertex 9.4823619e+00 3.1931852e+01 4.0000010e+00
         vertex 9.0000000e+00 3.1732051e+01 1.0000000e-06
         vertex 9.4823619e+00 3.1931852e+01 1.0000000e-06
      endloop
   endfacet
   facet normal 1.3052619e-01 -9.9144486e-01 0.0000000e+00
      outer loop
         vertex 9.4823619e+00 3.1931852e+01 4.0000010e+00
         vertex 9.4823619e+00 3.1931852e+01 1.0000000e-06
         vertex 1.0000000e+01 3.2000000e+01 4.0000010e+00
      endloop
   endfacet
   facet normal 1.3052619e-01 -9.9144486e-01 0.0000000e+00
      outer loop
         vertex 1.0000000e+01 3.2000000e+01 4.0000010e+00
         vertex 9.4823619e+00 3.1931852e+01 1.0000000e-06
         vertex 1.0000000e+01 3.2000000e+01 1.0000000e-06
      endloop
   endfacet
   facet normal 0.0000000e+00 -1.0000000e+00 0.0000000e+00
      outer loop
         vertex 1.0000000e+01 2.5000000e+01 1.0000000e-06
         vertex 3.0000000e+01 2.5000000e+01 1.0000000e-06
         vertex 1.0000000e+01 2.5000000e+01 4.0000010e+00
      endloop
   endfacet
   facet normal 0.0000000e+00 -1.0000000e+00 0.0000000e+00
      outer loop
         vertex 1.0000000e+01 2.5000000e+01 4.0000010e+00
         vertex 3.0000000e+01 2.5000000e+01 1.0000000e-06
         vertex 3.0000000e+01 2.5000000e+01 4.0000010e+00
      endloop
   endfacet
   facet normal -1.1196448e-01 9.9371221e-01 0.0000000e+00
      outer loop
         vertex 1.0000000e+01 3.5000000e+01 4.0000010e+00
         vertex 1.0000000e+01 3.5000000e+01 1.0000000e-06
         vertex 8.8873953e+00 3.4874640e+01 4.0000010e+00
      endloop
   endfacet
   facet normal -1.1196448e-01 9.9371221e-01 0.0000000e+00
      outer loop
         vertex 8.8873953e+00 3.4874640e+01 4.0000010e+00
         vertex 1.0000000e+01 3.5000000e+01 1.0000000e-06
         vertex 8.8873953e+00 3.4874640e+01 1.0000000e-06
      endloop
   endfacet
   facet normal -3.3027906e-01 9.4388333e-01 0.0000000e+00
      outer loop
         vertex 8.8873953e+00 3.4874640e+01 4.0000010e+00
         vertex 8.8873953e+00 3.4874640e+01 1.0000000e-06
         vertex 7.8305813e+00 3.4504844e+01 4.0000010e+00
      endloop
   endfacet
   facet normal -3.3027906e-01 9.4388333e-01 0.0000000e+00
      outer loop
         vertex 7.8305813e+00 3.4504844e+01 4.0000010e+00
         vertex 8.8873953e+00 3.4874640e+01 1.0000000e-06
         vertex 7.8305813e+00 3.4504844e+01 1.0000000e-06
      endloop
   endfacet
   facet normal -5.3203208e-01 8.4672420e-01 0.0000000e+00
      outer loop
         vertex 7.8305813e+00 3.4504844e+01 4.0000010e+00
         vertex 7.8305813e+00 3.4504844e+01 1.0000000e-06
         vertex 6.8825510e+00 3.3909157e+01 4.0000010e+00
      endloop
   endfacet
   facet normal -5.3203208e-01 8.4672420e-01 0.0000000e+00
      outer loop
         vertex 6.8825510e+00 3.3909157e+01 4.0000010e+00
         vertex 7.8305813e+00 3.4504844e+01 1.0000000e-06
         vertex 6.8825510e+00 3.3909157e+01 1.0000000e-06
      endloop
   endfacet
   facet normal -7.0710678e-01 7.0710678e-01 0.0000000e+00
      outer loop
         vertex 6.8825510e+00 3.3909157e+01 4.0000010e+00
         vertex 6.8825510e+00 3.3909157e+01 1.0000000e-06
         vertex 6.0908426e+00 3.3117449e+01 4.0000010e+00
      endloop
   endfacet
   facet normal -7.0710678e-01 7.0710678e-01 0.0000000e+00
      outer loop
         vertex 6.0908426e+00 3.3117449e+01 4.0000010e+00
         vertex 6.8825510e+00 3.3909157e+01 1.0000000e-06
         vertex 6.0908426e+00 3.3117449e+01 1.0000000e-06
      endloop
   endfacet
   facet normal -8.4672420e-01 5.3203208e-01 0.0000000e+00
      outer loop
         vertex 6.0908426e+00 3.3117449e+01 4.0000010e+00
         vertex 6.0908426e+00 3.3117449e+01 1.0000000e-06
         vertex 5.4951557e+00 3.2169419e+01 4.0000010e+00
      endloop
   endfacet
   facet normal -8.4672420e-01 5.3203208e-01 0.0000000e+00
      outer loop
         vertex 5.4951557e+00 3.2169419e+01 4.0000010e+00
         vertex 6.0908426e+00 3.3117449e+01 1.0000000e-06
         vertex 5.4951557e+00 3.2169419e+01 1.0000000e-06
      endloop
   endfacet
   facet normal -9.4388333e-01 3.3027906e-01 0.0000000e+00
      outer loop
         vertex 5.4951557e+00 3.2169419e+01 4.0000010e+00
         vertex 5.4951557e+00 3.2169419e+01 1.0000000e-06
         vertex 5.1253604e+00 3.1112605e+01 4.0000010e+00
      endloop
   endfacet
   facet normal -9.4388333e-01 3.3027906e-01 0.0000000e+00
      outer loop
         vertex 5.1253604e+00 3.1112605e+01 4.0000010e+00
         vertex 5.4951557e+00 3.2169419e+01 1.0000000e-06
         vertex 5.1253604e+00 3.1112605e+01 1.0000000e-06
      endloop
   endfacet
   facet normal -9.9371221e-01 1.1196448e-01 0.0000000e+00
      outer loop
         vertex 5.1253604e+00 3.1112605e+01 4.0000010e+00
         vertex 5.1253604e+00 3.1112605e+01 1.0000000e-06
         vertex 5.0000000e+00 3.0000000e+01 4.0000010e+00
      endloop
   endfacet
   facet normal -9.9371221e-01 1.1196448e-01 0.0000000e+00
      outer loop
         vertex 5.0000000e+00 3.0000000e+01 4.0000010e+00
         vertex 5.1253604e+00 3.1112605e+01 1.0000000e-06
         vertex 5.0000000e+00 3.0000000e+01 1.0000000e-06
      endloop
   endfacet
   facet normal -9.9371221e-01 -1.1196448e-01 -0.0000000e+00
      outer loop
         vertex 5.0000000e+00 3.0000000e+01 4.0000010e+00
         vertex 5.0000000e+00 3.0000000e+01 1.0000000e-06
         vertex 5.1253604e+00 2.8887395e+01 4.0000010e+00
      endloop
   endfacet
   facet normal -9.9371221e-01 -1.1196448e-01 0.0000000e+00
      outer loop
         vertex 5.1253604e+00 2.8887395e+01 4.0000010e+00
         vertex 5.0000000e+00 3.0000000e+01 1.0000000e-06
         vertex 5.1253604e+00 2.8887395e+01 1.0000000e-06
      endloop
   endfacet
   facet normal -9.4388333e-01 -3.3027906e-01 -0.0000000e+00
      outer loop
         vertex 5.1253604e+00 2.8887395e+01 4.0000010e+00
         vertex 5.1253604e+00 2.8887395e+01 1.0000000e-06
         vertex 5.4951557e+00 2.7830581e+01 4.0000010e+00
      endloop
   endfacet
   facet normal -9.4388333e-01 -3.3027906e-01 0.0000000e+00
      outer loop
         vertex 5.4951557e+00 2.7830581e+01 4.0000010e+00
         vertex 5.1253604e+00 2.8887395e+01 1.0000000e-06
         vertex 5.4951557e+00 2.7830581e+01 1.0000000e-06
      endloop
   endfacet
   facet normal -8.4672420e-01 -5.3203208e-01 -0.0000000e+00
      outer loop
         vertex 5.4951557e+00 2.7830581e+01 4.0000010e+00
         vertex 5.4951557e+00 2.7830581e+01 1.0000000e-06
         vertex 6.0908426e+00 2.6882551e+01 4.0000010e+00
      endloop
   endfacet
   facet normal -8.4672420e-01 -5.3203208e-01 0.0000000e+00
      outer loop
         vertex 6.0908426e+00 2.6882551e+01 4.0000010e+00
         vertex 5.4951557e+00 2.7830581e+01 1.0000000e-06
         vertex 6.0908426e+00 2.6882551e+01 1.0000000e-06
      endloop
   endfacet
   facet normal -7.0710678e-01 -7.0710678e-01 -0.0000000e+00
      outer loop
         vertex 6.0908426e+00 2.6882551e+01 4.0000010e+00
         vertex 6.0908426e+00 2.6882551e+01 1.0000000e-06
         vertex 6.8825510e+00 2.6090843e+01 4.0000010e+00
      endloop
   endfacet
   facet normal -7.0710678e-01 -7.0710678e-01 0.0000000e+00
      outer loop
         vertex 6.8825510e+00 2.6090843e+01 4.0000010e+00
         vertex 6.0908426e+00 2.6882551e+01 1.0000000e-06
         vertex 6.8825510e+00 2.6090843e+01 1.0000000e-06
      endloop
   endfacet
   facet normal -5.3203208e-01 -8.4672420e-01 -0.0000000e+00
      outer loop
         vertex 6.8825510e+00 2.6090843e+01 4.0000010e+00
         vertex 6.8825510e+00 2.6090843e+01 1.0000000e-06
         vertex 7.8305813e+00 2.5495156e+01 4.0000010e+00
      endloop
   endfacet
   facet normal -5.3203208e-01 -8.4672420e-01 0.0000000e+00
      outer loop
         vertex 7.8305813e+00 2.5495156e+01 4.0000010e+00
         vertex 6.8825510e+00 2.6090843e+01 1.0000000e-06
         vertex 7.8305813e+00 2.5495156e+01 1.0000000e-06
      endloop
   endfacet
   facet normal -3.3027906e-01 -9.4388333e-01 -0.0000000e+00
      outer loop
         vertex 7.8305813e+00 2.5495156e+01 4.0000010e+00
         vertex 7.8305813e+00 2.5495156e+01 1.0000000e-06
         vertex 8.8873953e+00 2.5125360e+01 4.0000010e+00
      endloop
   endfacet
   facet normal -3.3027906e-01 -9.4388333e-01 0.0000000e+00
      outer loop
         vertex 8.8873953e+00 2.5125360e+01 4.0000010e+00
         vertex 7.8305813e+00 2.5495156e+01 1.0000000e-06
         vertex 8.8873953e+00 2.5125360e+01 1.0000000e-06
      endloop
   endfacet
   facet normal -1.1196448e-01 -9.9371221e-01 -0.0000000e+00
      outer loop
         vertex 8.8873953e+00 2.5125360e+01 4.0000010e+00
         vertex 8.8873953e+00 2.5125360e+01 1.0000000e-06
         vertex 1.0000000e+01 2.5000000e+01 4.0000010e+00
      endloop
   endfacet
   facet normal -1.1196448e-01 -9.9371221e-01 0.0000000e+00
      outer loop
         vertex 1.0000000e+01 2.5000000e+01 4.0000010e+00
         vertex 8.8873953e+00 2.5125360e+01 1.0000000e-06
         vertex 1.0000000e+01 2.5000000e+01 1.0000000e-06
      endloop
   endfacet
   facet normal 0.0000000e+00 1.0000000e+00 -0.0000000e+00
      outer loop
         vertex 3.0000000e+01 3.5000000e+01 1.0000000e-06
         vertex 1.0000000e+01 3.5000000e+01 1.0000000e-06
         vertex 3.0000000e+01 3.5000000e+01 4.0000010e+00
      endloop
   endfacet
   facet normal 0.0000000e+00 1.0000000e+00 -0.0000000e+00
      outer loop
         vertex 3.0000000e+01 3.5000000e+01 4.0000010e+00
         vertex 1.0000000e+01 3.5000000e+01 1.0000000e-06
         vertex 1.0000000e+01 3.5000000e+01 4.0000010e+00
      endloop
   endfacet
   facet normal 1.1196448e-01 -9.9371221e-01 0.0000000e+00
      outer loop
         vertex 3.0000000e+01 2.5000000e+01 4.0000010e+00
         vertex 3.0000000e+01 2.5000000e+01 1.0000000e-06
         vertex 3.1112605e+01 2.5125360e+01 4.0000010e+00
      endloop
   endfacet
   facet normal 1.1196448e-01 -9.9371221e-01 0.0000000e+00
      outer loop
         vertex 3.1112605e+01 2.5125360e+01 4.0000010e+00
         vertex 3.0000000e+01 2.5000000e+01 1.0000000e-06
         vertex 3.1112605e+01 2.5125360e+01 1.0000000e-06
      endloop
   endfacet
   facet normal 3.3027906e-01 -9.4388333e-01 0.0000000e+00
      outer loop
         vertex 3.1112605e+01 2.5125360e+01 4.0000010e+00
         vertex 3.1112605e+01 2.5125360e+01 1.0000000e-06
         vertex 3.2169419e+01 2.5495156e+01 4.0000010e+00
      endloop
   endfacet
   facet normal 3.3027906e-01 -9.4388333e-01 0.0000000e+00
      outer loop
         vertex 3.2169419e+01 2.5495156e+01 4.0000010e+00
         vertex 3.1112605e+01 2.5125360e+01 1.0000000e-06
         vertex 3.2169419e+01 2.5495156e+01 1.0000000e-06
      endloop
   endfacet
   facet normal 5.3203208e-01 -8.4672420e-01 0.0000000e+00
      outer loop
         vertex 3.2169419e+01 2.5495156e+01 4.0000010e+00
         vertex 3.2169419e+01 2.5495156e+01 1.0000000e-06
         vertex 3.3117449e+01 2.6090843e+01 4.0000010e+00
      endloop
   endfacet
   facet normal 5.3203208e-01 -8.4672420e-01 0.0000000e+00
      outer loop
         vertex 3.3117449e+01 2.6090843e+01 4.0000010e+00
         vertex 3.2169419e+01 2.5495156e+01 1.0000000e-06
         vertex 3.3117449e+01 2.6090843e+01 1.0000000e-06
      endloop
   endfacet
   facet normal 7.0710678e-01 -7.0710678e-01 0.0000000e+00
      outer loop
         vertex 3.3117449e+01 2.6090843e+01 4.0000010e+00
         vertex 3.3117449e+01 2.6090843e+01 1.0000000e-06
         vertex 3.3909157e+01 2.6882551e+01 4.0000010e+00
      endloop
   endfacet
   facet normal 7.0710678e-01 -7.0710678e-01 0.0000000e+00
      outer loop
         vertex 3.3909157e+01 2.6882551e+01 4.0000010e+00
         vertex 3.3117449e+01 2.6090843e+01 1.0000000e-06
         vertex 3.3909157e+01 2.6882551e+01 1.0000000e-06
      endloop
   endfacet
   facet normal 8.4672420e-01 -5.3203208e-01 0.0000000e+00
      outer loop
         vertex 3.3909157e+01 2.6882551e+01 4.0000010e+00
         vertex 3.3909157e+01 2.6882551e+01 1.0000000e-06
         vertex 3.4504844e+01 2.7830581e+01 4.0000010e+00
      endloop
   endfacet
   facet normal 8.4672420e-01 -5.3203208e-01 0.0000000e+00
      outer loop
         vertex 3.4504844e+01 2.7830581e+01 4.0000010e+00
         vertex 3.3909157e+01 2.6882551e+01 1.0000000e-06
         vertex 3.4504844e+01 2.7830581e+01 1.0000000e-06
      endloop
   endfacet
   facet normal 9.4388333e-01 -3.3027906e-01 0.0000000e+00
      outer loop
         vertex 3.4504844e+01 2.7830581e+01 4.0000010e+00
         vertex 3.4504844e+01 2.7830581e+01 1.0000000e-06
         vertex 3.4874640e+01 2.8887395e+01 4.0000010e+00
      endloop
   endfacet
   facet normal 9.4388333e-01 -3.3027906e-01 0.0000000e+00
      outer loop
         vertex 3.4874640e+01 2.8887395e+01 4.0000010e+00
         vertex 3.4504844e+01 2.7830581e+01 1.0000000e-06
         vertex 3.4874640e+01 2.8887395e+01 1.0000000e-06
      endloop
   endfacet
   facet normal 9.9371221e-01 -1.1196448e-01 0.0000000e+00
      outer loop
         vertex 3.4874640e+01 2.8887395e+01 4.0000010e+00
         vertex 3.4874640e+01 2.8887395e+01 1.0000000e-06
         vertex 3.5000000e+01 3.0000000e+01 4.0000010e+00
      endloop
   endfacet
   facet normal 9.9371221e-01 -1.1196448e-01 0.0000000e+00
      outer loop
         vertex 3.5000000e+01 3.0000000e+01 4.0000010e+00
         vertex 3.4874640e+01 2.8887395e+01 1.0000000e-06
         vertex 3.5000000e+01 3.0000000e+01 1.0000000e-06
      endloop
   endfacet
   facet normal 9.9371221e-01 1.1196448e-01 0.0000000e+00
      outer loop
         vertex 3.5000000e+01 3.0000000e+01 4.0000010e+00
         vertex 3.5000000e+01 3.0000000e+01 1.0000000e-06
         vertex 3.4874640e+01 3.1112605e+01 4.0000010e+00
      endloop
   endfacet
   facet normal 9.9371221e-01 1.1196448e-01 0.0000000e+00
      outer loop
         vertex 3.4874640e+01 3.1112605e+01 4.0000010e+00
         vertex 3.5000000e+01 3.0000000e+01 1.0000000e-06
         vertex 3.4874640e+01 3.1112605e+01 1.0000000e-06
      endloop
   endfacet
   facet normal 9.4388333e-01 3.3027906e-01 0.0000000e+00
      outer loop
         vertex 3.4874640e+01 3.1112605e+01 4.0000010e+00
         vertex 3.4874640e+01 3.1112605e+01 1.0000000e-06
         vertex 3.4504844e+01 3.2169419e+01 4.0000010e+00
      endloop
   endfacet
   facet normal 9.4388333e-01 3.3027906e-01 0.0000000e+00
      outer loop
         vertex 3.4504844e+01 3.2169419e+01 4.0000010e+00
         vertex 3.4874640e+01 3.1112605e+01 1.0000000e-06
         vertex 3.4504844e+01 3.2169419e+01 1.0000000e-06
      endloop
   endfacet
   facet normal 8.4672420e-01 5.3203208e-01 0.0000000e+00
      outer loop
         vertex 3.4504844e+01 3.2169419e+01 4.0000010e+00
         vertex 3.4504844e+01 3.2169419e+01 1.0000000e-06
         vertex 3.3909157e+01 3.3117449e+01 4.0000010e+00
      endloop
   endfacet
   facet normal 8.4672420e-01 5.3203208e-01 0.0000000e+00
      outer loop
         vertex 3.3909157e+01 3.3117449e+01 4.0000010e+00
         vertex 3.4504844e+01 3.2169419e+01 1.0000000e-06
         vertex 3.3909157e+01 3.3117449e+01 1.0000000e-06
      endloop
   endfacet
   facet normal 7.0710678e-01 7.0710678e-01 0.0000000e+00
      outer loop
         vertex 3.3909157e+01 3.3117449e+01 4.0000010e+00
         vertex 3.3909157e+01 3.3117449e+01 1.0000000e-06
         vertex 3.3117449e+01 3.3909157e+01 4.0000010e+00
      endloop
   endfacet
   facet normal 7.0710678e-01 7.0710678e-01 0.0000000e+00
      outer loop
         vertex 3.3117449e+01 3.3909157e+01 4.0000010e+00
         vertex 3.3909157e+01 3.3117449e+01 1.0000000e-06
         vertex 3.3117449e+01 3.3909157e+01 1.0000000e-06
      endloop
   endfacet
   facet normal 5.3203208e-01 8.4672420e-01 0.0000000e+00
      outer loop
         vertex 3.3117449e+01 3.3909157e+01 4.0000010e+00
         vertex 3.3117449e+01 3.3909157e+01 1.0000000e-06
         vertex 3.2169419e+01 3.4504844e+01 4.0000010e+00
      endloop
   endfacet
   facet normal 5.3203208e-01 8.4672420e-01 0.0000000e+00
      outer loop
         vertex 3.2169419e+01 3.4504844e+01 4.0000010e+00
         vertex 3.3117449e+01 3.3909157e+01 1.0000000e-06
         vertex 3.2169419e+01 3.4504844e+01 1.0000000e-06
      endloop
   endfacet
   facet normal 3.3027906e-01 9.4388333e-01 0.0000000e+00
      outer loop
         vertex 3.2169419e+01 3.4504844e+01 4.0000010e+00
         vertex 3.2169419e+01 3.4504844e+01 1.0000000e-06
         vertex 3.1112605e+01 3.4874640e+01 4.0000010e+00
      endloop
   endfacet
   facet normal 3.3027906e-01 9.4388333e-01 0.0000000e+00
      outer loop
         vertex 3.1112605e+01 3.4874640e+01 4.0000010e+00
         vertex 3.2169419e+01 3.4504844e+01 1.0000000e-06
         vertex 3.1112605e+01 3.4874640e+01 1.0000000e-06
      endloop
   endfacet
   facet normal 1.1196448e-01 9.9371221e-01 0.0000000e+00
      outer loop
         vertex 3.1112605e+01 3.4874640e+01 4.0000010e+00
         vertex 3.1112605e+01 3.4874640e+01 1.0000000e-06
         vertex 3.0000000e+01 3.5000000e+01 4.0000010e+00
      endloop
   endfacet
   facet normal 1.1196448e-01 9.9371221e-01 0.0000000e+00
      outer loop
         vertex 3.0000000e+01 3.5000000e+01 4.0000010e+00
         vertex 3.1112605e+01 3.4874640e+01 1.0000000e-06
         vertex 3.0000000e+01 3.5000000e+01 1.0000000e-06
      endloop
   endfacet
   facet normal -0.0000000e+00 0.0000000e+00 1.0000000e+00
      outer loop
         vertex 9.4823619e+00 2.8068148e+01 4.0000010e+00
         vertex 6.0908426e+00 2.6882551e+01 4.0000010e+00
         vertex 1.0000000e+01 2.8000000e+01 4.0000010e+00
      endloop
   endfacet
   facet normal 0.0000000e+00 0.0000000e+00 1.0000000e+00
      outer loop
         vertex 1.0000000e+01 2.8000000e+01 4.0000010e+00
         vertex 6.0908426e+00 2.6882551e+01 4.0000010e+00
         vertex 6.8825510e+00 2.6090843e+01 4.0000010e+00
      endloop
   endfacet
   facet normal 0.0000000e+00 0.0000000e+00 1.0000000e+00
      outer loop
         vertex 1.0000000e+01 2.8000000e+01 4.0000010e+00
         vertex 6.8825510e+00 2.6090843e+01 4.0000010e+00
         vertex 7.8305813e+00 2.5495156e+01 4.0000010e+00
      endloop
   endfacet
   facet normal 0.0000000e+00 -0.0000000e+00 1.0000000e+00
      outer loop
         vertex 6.0908426e+00 2.6882551e+01 4.0000010e+00
         vertex 9.4823619e+00 2.8068148e+01 4.0000010e+00
         vertex 5.4951557e+00 2.7830581e+01 4.0000010e+00
      endloop
   endfacet
   facet normal 0.0000000e+00 -0.0000000e+00 1.0000000e+00
      outer loop
         vertex 5.4951557e+00 2.7830581e+01 4.0000010e+00
         vertex 9.4823619e+00 2.8068148e+01 4.0000010e+00
         vertex 9.0000000e+00 2.8267949e+01 4.0000010e+00
      endloop
   endfacet
   facet normal 0.0000000e+00 -0.0000000e+00 1.0000000e+00
      outer loop
         vertex 5.4951557e+00 2.7830581e+01 4.0000010e+00
         vertex 9.0000000e+00 2.8267949e+01 4.0000010e+00
         vertex 8.5857864e+00 2.8585786e+01 4.0000010e+00
      endloop
   endfacet
   facet normal 0.0000000e+00 -0.0000000e+00 1.0000000e+00
      outer loop
         vertex 5.4951557e+00 2.7830581e+01 4.0000010e+00
         vertex 8.5857864e+00 2.8585786e+01 4.0000010e+00
         vertex 5.1253604e+00 2.8887395e+01 4.0000010e+00
      endloop
   endfacet
   facet normal -0.0000000e+00 -0.0000000e+00 1.0000000e+00
      outer loop
         vertex 5.1253604e+00 2.8887395e+01 4.0000010e+00
         vertex 8.5857864e+00 2.8585786e+01 4.0000010e+00
         vertex 8.2679492e+00 2.9000000e+01 4.0000010e+00
      endloop
   endfacet
   facet normal 0.0000000e+00 -0.0000000e+00 1.0000000e+00
      outer loop
         vertex 5.1253604e+00 2.8887395e+01 4.0000010e+00
         vertex 8.2679492e+00 2.9000000e+01 4.0000010e+00
         vertex 8.0681483e+00 2.9482362e+01 4.0000010e+00
      endloop
   endfacet
   facet normal 0.0000000e+00 -0.0000000e+00 1.0000000e+00
      outer loop
         vertex 5.1253604e+00 2.8887395e+01 4.0000010e+00
         vertex 8.0681483e+00 2.9482362e+01 4.0000010e+00
         vertex 5.0000000e+00 3.0000000e+01 4.0000010e+00
      endloop
   endfacet
   facet normal -0.0000000e+00 -0.0000000e+00 1.0000000e+00
      outer loop
         vertex 5.0000000e+00 3.0000000e+01 4.0000010e+00
         vertex 8.0681483e+00 2.9482362e+01 4.0000010e+00
         vertex 8.0000000e+00 3.0000000e+01 4.0000010e+00
      endloop
   endfacet
   facet normal 0.0000000e+00 0.0000000e+00 1.0000000e+00
      outer loop
         vertex 5.0000000e+00 3.0000000e+01 4.0000010e+00
         vertex 8.0000000e+00 3.0000000e+01 4.0000010e+00
         vertex 8.0681483e+00 3.0517638e+01 4.0000010e+00
      endloop
   endfacet
   facet normal 0.0000000e+00 -0.0000000e+00 1.0000000e+00
      outer loop
         vertex 5.0000000e+00 3.0000000e+01 4.0000010e+00
         vertex 8.0681483e+00 3.0517638e+01 4.0000010e+00
         vertex 5.1253604e+00 3.1112605e+01 4.0000010e+00
      endloop
   endfacet
   facet normal -0.0000000e+00 0.0000000e+00 1.0000000e+00
      outer loop
         vertex 5.1253604e+00 3.1112605e+01 4.0000010e+00
         vertex 8.0681483e+00 3.0517638e+01 4.0000010e+00
         vertex 8.2679492e+00 3.1000000e+01 4.0000010e+00
      endloop
   endfacet
   facet normal -0.0000000e+00 0.0000000e+00 1.0000000e+00
      outer loop
         vertex 5.1253604e+00 3.1112605e+01 4.0000010e+00
         vertex 8.2679492e+00 3.1000000e+01 4.0000010e+00
         vertex 8.5857864e+00 3.1414214e+01 4.0000010e+00
      endloop
   endfacet
   facet normal 0.0000000e+00 -0.0000000e+00 1.0000000e+00
      outer loop
         vertex 5.1253604e+00 3.1112605e+01 4.0000010e+00
         vertex 8.5857864e+00 3.1414214e+01 4.0000010e+00
         vertex 5.4951557e+00 3.2169419e+01 4.0000010e+00
      endloop
   endfacet
   facet normal -0.0000000e+00 0.0000000e+00 1.0000000e+00
      outer loop
         vertex 5.4951557e+00 3.2169419e+01 4.0000010e+00
         vertex 8.5857864e+00 3.1414214e+01 4.0000010e+00
         vertex 9.0000000e+00 3.1732051e+01 4.0000010e+00
      endloop
   endfacet
   facet normal -0.0000000e+00 0.0000000e+00 1.0000000e+00
      outer loop
         vertex 5.4951557e+00 3.2169419e+01 4.0000010e+00
         vertex 9.0000000e+00 3.1732051e+01 4.0000010e+00
         vertex 9.4823619e+00 3.1931852e+01 4.0000010e+00
      endloop
   endfacet
   facet normal -0.0000000e+00 -0.0000000e+00 1.0000000e+00
      outer loop
         vertex 5.4951557e+00 3.2169419e+01 4.0000010e+00
         vertex 9.4823619e+00 3.1931852e+01 4.0000010e+00
         vertex 6.0908426e+00 3.3117449e+01 4.0000010e+00
      endloop
   endfacet
   facet normal -0.0000000e+00 0.0000000e+00 1.0000000e+00
      outer loop
         vertex 6.0908426e+00 3.3117449e+01 4.0000010e+00
         vertex 9.4823619e+00 3.1931852e+01 4.0000010e+00
         vertex 1.0000000e+01 3.2000000e+01 4.0000010e+00
      endloop
   endfacet
   facet normal -0.0000000e+00 -0.0000000e+00 1.0000000e+00
      outer loop
         vertex 6.0908426e+00 3.3117449e+01 4.0000010e+00
         vertex 1.0000000e+01 3.2000000e+01 4.0000010e+00
         vertex 6.8825510e+00 3.3909157e+01 4.0000010e+00
      endloop
   endfacet
   facet normal -0.0000000e+00 -0.0000000e+00 1.0000000e+00
      outer loop
         vertex 6.8825510e+00 3.3909157e+01 4.0000010e+00
         vertex 1.0000000e+01 3.2000000e+01 4.0000010e+00
         vertex 7.8305813e+00 3.4504844e+01 4.0000010e+00
      endloop
   endfacet
   facet normal -0.0000000e+00 -0.0000000e+00 1.0000000e+00
      outer loop
         vertex 7.8305813e+00 3.4504844e+01 4.0000010e+00
         vertex 1.0000000e+01 3.2000000e+01 4.0000010e+00
         vertex 1.0000000e+01 3.5000000e+01 4.0000010e+00
      endloop
   endfacet
   facet normal 0.0000000e+00 -0.0000000e+00 1.0000000e+00
      outer loop
         vertex 7.8305813e+00 3.4504844e+01 4.0000010e+00
         vertex 1.0000000e+01 3.5000000e+01 4.0000010e+00
         vertex 8.8873953e+00 3.4874640e+01 4.0000010e+00
      endloop
   endfacet
   facet normal -0.0000000e+00 -0.0000000e+00 1.0000000e+00
      outer loop
         vertex 1.0000000e+01 3.2000000e+01 4.0000010e+00
         vertex 3.0000000e+01 3.2000000e+01 4.0000010e+00
         vertex 1.0000000e+01 3.5000000e+01 4.0000010e+00
      endloop
   endfacet
   facet normal -0.0000000e+00 0.0000000e+00 1.0000000e+00
      outer loop
         vertex 1.0000000e+01 3.5000000e+01 4.0000010e+00
         vertex 3.0000000e+01 3.2000000e+01 4.0000010e+00
         vertex 3.0000000e+01 3.5000000e+01 4.0000010e+00
      endloop
   endfacet
   facet normal -0.0000000e+00 0.0000000e+00 1.0000000e+00
      outer loop
         vertex 3.0000000e+01 3.5000000e+01 4.0000010e+00
         vertex 3.0000000e+01 3.2000000e+01 4.0000010e+00
         vertex 3.2169419e+01 3.4504844e+01 4.0000010e+00
      endloop
   endfacet
   facet normal -0.0000000e+00 -0.0000000e+00 1.0000000e+00
      outer loop
         vertex 3.0000000e+01 3.5000000e+01 4.0000010e+00
         vertex 3.2169419e+01 3.4504844e+01 4.0000010e+00
         vertex 3.1112605e+01 3.4874640e+01 4.0000010e+00
      endloop
   endfacet
   facet normal 0.0000000e+00 -0.0000000e+00 1.0000000e+00
      outer loop
         vertex 3.0517638e+01 3.1931852e+01 4.0000010e+00
         vertex 3.3909157e+01 3.3117449e+01 4.0000010e+00
         vertex 3.0000000e+01 3.2000000e+01 4.0000010e+00
      endloop
   endfacet
   facet normal 0.0000000e+00 -0.0000000e+00 1.0000000e+00
      outer loop
         vertex 3.0000000e+01 3.2000000e+01 4.0000010e+00
         vertex 3.3909157e+01 3.3117449e+01 4.0000010e+00
         vertex 3.3117449e+01 3.3909157e+01 4.0000010e+00
      endloop
   endfacet
   facet normal 0.0000000e+00 -0.0000000e+00 1.0000000e+00
      outer loop
         vertex 3.0000000e+01 3.2000000e+01 4.0000010e+00
         vertex 3.3117449e+01 3.3909157e+01 4.0000010e+00
         vertex 3.2169419e+01 3.4504844e+01 4.0000010e+00
      endloop
   endfacet
   facet normal -0.0000000e+00 0.0000000e+00 1.0000000e+00
      outer loop
         vertex 3.3909157e+01 3.3117449e+01 4.0000010e+00
         vertex 3.0517638e+01 3.1931852e+01 4.0000010e+00
         vertex 3.4504844e+01 3.2169419e+01 4.0000010e+00
      endloop
   endfacet
   facet normal 0.0000000e+00 0.0000000e+00 1.0000000e+00
      outer loop
         vertex 3.4504844e+01 3.2169419e+01 4.0000010e+00
         vertex 3.0517638e+01 3.1931852e+01 4.0000010e+00
         vertex 3.1000000e+01 3.1732051e+01 4.0000010e+00
      endloop
   endfacet
   facet normal 0.0000000e+00 0.0000000e+00 1.0000000e+00
      outer loop
         vertex 3.4504844e+01 3.2169419e+01 4.0000010e+00
         vertex 3.1000000e+01 3.1732051e+01 4.0000010e+00
         vertex 3.1414214e+01 3.1414214e+01 4.0000010e+00
      endloop
   endfacet
   facet normal 0.0000000e+00 0.0000000e+00 1.0000000e+00
      outer loop
         vertex 3.4504844e+01 3.2169419e+01 4.0000010e+00
         vertex 3.1414214e+01 3.1414214e+01 4.0000010e+00
         vertex 3.4874640e+01 3.1112605e+01 4.0000010e+00
      endloop
   endfacet
   facet normal 0.0000000e+00 0.0000000e+00 1.0000000e+00
      outer loop
         vertex 3.4874640e+01 3.1112605e+01 4.0000010e+00
         vertex 3.1414214e+01 3.1414214e+01 4.0000010e+00
         vertex 3.1732051e+01 3.1000000e+01 4.0000010e+00
      endloop
   endfacet
   facet normal 0.0000000e+00 0.0000000e+00 1.0000000e+00
      outer loop
         vertex 3.4874640e+01 3.1112605e+01 4.0000010e+00
         vertex 3.1732051e+01 3.1000000e+01 4.0000010e+00
         vertex 3.1931852e+01 3.0517638e+01 4.0000010e+00
      endloop
   endfacet
   facet normal 0.0000000e+00 0.0000000e+00 1.0000000e+00
      outer loop
         vertex 3.4874640e+01 3.1112605e+01 4.0000010e+00
         vertex 3.1931852e+01 3.0517638e+01 4.0000010e+00
         vertex 3.5000000e+01 3.0000000e+01 4.0000010e+00
      endloop
   endfacet
   facet normal 0.0000000e+00 0.0000000e+00 1.0000000e+00
      outer loop
         vertex 3.5000000e+01 3.0000000e+01 4.0000010e+00
         vertex 3.1931852e+01 3.0517638e+01 4.0000010e+00
         vertex 3.2000000e+01 3.0000000e+01 4.0000010e+00
      endloop
   endfacet
   facet normal 0.0000000e+00 0.0000000e+00 1.0000000e+00
      outer loop
         vertex 3.5000000e+01 3.0000000e+01 4.0000010e+00
         vertex 3.2000000e+01 3.0000000e+01 4.0000010e+00
         vertex 3.1931852e+01 2.9482362e+01 4.0000010e+00
      endloop
   endfacet
   facet normal 0.0000000e+00 0.0000000e+00 1.0000000e+00
      outer loop
         vertex 3.5000000e+01 3.0000000e+01 4.0000010e+00
         vertex 3.1931852e+01 2.9482362e+01 4.0000010e+00
         vertex 3.4874640e+01 2.8887395e+01 4.0000010e+00
      endloop
   endfacet
   facet normal 0.0000000e+00 0.0000000e+00 1.0000000e+00
      outer loop
         vertex 3.4874640e+01 2.8887395e+01 4.0000010e+00
         vertex 3.1931852e+01 2.9482362e+01 4.0000010e+00
         vertex 3.1732051e+01 2.9000000e+01 4.0000010e+00
      endloop
   endfacet
   facet normal 0.0000000e+00 0.0000000e+00 1.0000000e+00
      outer loop
         vertex 3.4874640e+01 2.8887395e+01 4.0000010e+00
         vertex 3.1732051e+01 2.9000000e+01 4.0000010e+00
         vertex 3.1414214e+01 2.8585786e+01 4.0000010e+00
      endloop
   endfacet
   facet normal 0.0000000e+00 0.0000000e+00 1.0000000e+00
      outer loop
         vertex 3.4874640e+01 2.8887395e+01 4.0000010e+00
         vertex 3.1414214e+01 2.8585786e+01 4.0000010e+00
         vertex 3.4504844e+01 2.7830581e+01 4.0000010e+00
      endloop
   endfacet
   facet normal 0.0000000e+00 0.0000000e+00 1.0000000e+00
      outer loop
         vertex 3.4504844e+01 2.7830581e+01 4.0000010e+00
         vertex 3.1414214e+01 2.8585786e+01 4.0000010e+00
         vertex 3.1000000e+01 2.8267949e+01 4.0000010e+00
      endloop
   endfacet
   facet normal 0.0000000e+00 0.0000000e+00 1.0000000e+00
      outer loop
         vertex 3.4504844e+01 2.7830581e+01 4.0000010e+00
         vertex 3.1000000e+01 2.8267949e+01 4.0000010e+00
         vertex 3.0517638e+01 2.8068148e+01 4.0000010e+00
      endloop
   endfacet
   facet normal 0.0000000e+00 0.0000000e+00 1.0000000e+00
      outer loop
         vertex 3.4504844e+01 2.7830581e+01 4.0000010e+00
         vertex 3.0517638e+01 2.8068148e+01 4.0000010e+00
         vertex 3.3909157e+01 2.6882551e+01 4.0000010e+00
      endloop
   endfacet
   facet normal 0.0000000e+00 0.0000000e+00 1.0000000e+00
      outer loop
         vertex 3.3909157e+01 2.6882551e+01 4.0000010e+00
         vertex 3.0517638e+01 2.8068148e+01 4.0000010e+00
         vertex 3.0000000e+01 2.8000000e+01 4.0000010e+00
      endloop
   endfacet
   facet normal 0.0000000e+00 0.0000000e+00 1.0000000e+00
      outer loop
         vertex 3.3909157e+01 2.6882551e+01 4.0000010e+00
         vertex 3.0000000e+01 2.8000000e+01 4.0000010e+00
         vertex 3.3117449e+01 2.6090843e+01 4.0000010e+00
      endloop
   endfacet
   facet normal 0.0000000e+00 0.0000000e+00 1.0000000e+00
      outer loop
         vertex 3.3117449e+01 2.6090843e+01 4.0000010e+00
         vertex 3.0000000e+01 2.8000000e+01 4.0000010e+00
         vertex 3.2169419e+01 2.5495156e+01 4.0000010e+00
      endloop
   endfacet
   facet normal 0.0000000e+00 0.0000000e+00 1.0000000e+00
      outer loop
         vertex 3.2169419e+01 2.5495156e+01 4.0000010e+00
         vertex 3.0000000e+01 2.8000000e+01 4.0000010e+00
         vertex 3.0000000e+01 2.5000000e+01 4.0000010e+00
      endloop
   endfacet
   facet normal -0.0000000e+00 0.0000000e+00 1.0000000e+00
      outer loop
         vertex 3.2169419e+01 2.5495156e+01 4.0000010e+00
         vertex 3.0000000e+01 2.5000000e+01 4.0000010e+00
         vertex 3.1112605e+01 2.5125360e+01 4.0000010e+00
      endloop
   endfacet
   facet normal 0.0000000e+00 0.0000000e+00 1.0000000e+00
      outer loop
         vertex 3.0000000e+01 2.8000000e+01 4.0000010e+00
         vertex 1.0000000e+01 2.8000000e+01 4.0000010e+00
         vertex 3.0000000e+01 2.5000000e+01 4.0000010e+00
      endloop
   endfacet
   facet normal 0.0000000e+00 0.0000000e+00 1.0000000e+00
      outer loop
         vertex 3.0000000e+01 2.5000000e+01 4.0000010e+00
         vertex 1.0000000e+01 2.8000000e+01 4.0000010e+00
         vertex 1.0000000e+01 2.5000000e+01 4.0000010e+00
      endloop
   endfacet
   facet normal 0.0000000e+00 -0.0000000e+00 1.0000000e+00
      outer loop
         vertex 1.0000000e+01 2.5000000e+01 4.0000010e+00
         vertex 1.0000000e+01 2.8000000e+01 4.0000010e+00
         vertex 7.8305813e+00 2.5495156e+01 4.0000010e+00
      endloop
   endfacet
   facet normal 0.0000000e+00 0.0000000e+00 1.0000000e+00
      outer loop
         vertex 1.0000000e+01 2.5000000e+01 4.0000010e+00
         vertex 7.8305813e+00 2.5495156e+01 4.0000010e+00
         vertex 8.8873953e+00 2.5125360e+01 4.0000010e+00
      endloop
   endfacet
   facet normal 0.0000000e+00 0.0000000e+00 -1.0000000e+00
      outer loop
         vertex 9.4823619e+00 3.1931852e+01 1.0000000e-06
         vertex 6.0908426e+00 3.3117449e+01 1.0000000e-06
         vertex 1.0000000e+01 3.2000000e+01 1.0000000e-06
      endloop
   endfacet
   facet normal 0.0000000e+00 0.0000000e+00 -1.0000000e+00
      outer loop
         vertex 1.0000000e+01 3.2000000e+01 1.0000000e-06
         vertex 6.0908426e+00 3.3117449e+01 1.0000000e-06
         vertex 6.8825510e+00 3.3909157e+01 1.0000000e-06
      endloop
   endfacet
   facet normal 0.0000000e+00 0.0000000e+00 -1.0000000e+00
      outer loop
         vertex 1.0000000e+01 3.2000000e+01 1.0000000e-06
         vertex 6.8825510e+00 3.3909157e+01 1.0000000e-06
         vertex 7.8305813e+00 3.4504844e+01 1.0000000e-06
      endloop
   endfacet
   facet normal -0.0000000e+00 -0.0000000e+00 -1.0000000e+00
      outer loop
         vertex 6.0908426e+00 3.3117449e+01 1.0000000e-06
         vertex 9.4823619e+00 3.1931852e+01 1.0000000e-06
         vertex 5.4951557e+00 3.2169419e+01 1.0000000e-06
      endloop
   endfacet
   facet normal 0.0000000e+00 -0.0000000e+00 -1.0000000e+00
      outer loop
         vertex 5.4951557e+00 3.2169419e+01 1.0000000e-06
         vertex 9.4823619e+00 3.1931852e+01 1.0000000e-06
         vertex 9.0000000e+00 3.1732051e+01 1.0000000e-06
      endloop
   endfacet
   facet normal 0.0000000e+00 -0.0000000e+00 -1.0000000e+00
      outer loop
         vertex 5.4951557e+00 3.2169419e+01 1.0000000e-06
         vertex 9.0000000e+00 3.1732051e+01 1.0000000e-06
         vertex 8.5857864e+00 3.1414214e+01 1.0000000e-06
      endloop
   endfacet
   facet normal 0.0000000e+00 -0.0000000e+00 -1.0000000e+00
      outer loop
         vertex 5.4951557e+00 3.2169419e+01 1.0000000e-06
         vertex 8.5857864e+00 3.1414214e+01 1.0000000e-06
         vertex 5.1253604e+00 3.1112605e+01 1.0000000e-06
      endloop
   endfacet
   facet normal 0.0000000e+00 -0.0000000e+00 -1.0000000e+00
      outer loop
         vertex 5.1253604e+00 3.1112605e+01 1.0000000e-06
         vertex 8.5857864e+00 3.1414214e+01 1.0000000e-06
         vertex 8.2679492e+00 3.1000000e+01 1.0000000e-06
      endloop
   endfacet
   facet normal 0.0000000e+00 -0.0000000e+00 -1.0000000e+00
      outer loop
         vertex 5.1253604e+00 3.1112605e+01 1.0000000e-06
         vertex 8.2679492e+00 3.1000000e+01 1.0000000e-06
         vertex 8.0681483e+00 3.0517638e+01 1.0000000e-06
      endloop
   endfacet
   facet normal 0.0000000e+00 -0.0000000e+00 -1.0000000e+00
      outer loop
         vertex 5.1253604e+00 3.1112605e+01 1.0000000e-06
         vertex 8.0681483e+00 3.0517638e+01 1.0000000e-06
         vertex 5.0000000e+00 3.0000000e+01 1.0000000e-06
      endloop
   endfacet
   facet normal 0.0000000e+00 -0.0000000e+00 -1.0000000e+00
      outer loop
         vertex 5.0000000e+00 3.0000000e+01 1.0000000e-06
         vertex 8.0681483e+00 3.0517638e+01 1.0000000e-06
         vertex 8.0000000e+00 3.0000000e+01 1.0000000e-06
      endloop
   endfacet
   facet normal 0.0000000e+00 0.0000000e+00 -1.0000000e+00
      outer loop
         vertex 5.0000000e+00 3.0000000e+01 1.0000000e-06
         vertex 8.0000000e+00 3.0000000e+01 1.0000000e-06
         vertex 8.0681483e+00 2.9482362e+01 1.0000000e-06
      endloop
   endfacet
   facet normal 0.0000000e+00 -0.0000000e+00 -1.0000000e+00
      outer loop
         vertex 5.0000000e+00 3.0000000e+01 1.0000000e-06
         vertex 8.0681483e+00 2.9482362e+01 1.0000000e-06
         vertex 5.1253604e+00 2.8887395e+01 1.0000000e-06
      endloop
   endfacet
   facet normal 0.0000000e+00 0.0000000e+00 -1.0000000e+00
      outer loop
         vertex 5.1253604e+00 2.8887395e+01 1.0000000e-06
         vertex 8.0681483e+00 2.9482362e+01 1.0000000e-06
         vertex 8.2679492e+00 2.9000000e+01 1.0000000e-06
      endloop
   endfacet
   facet normal 0.0000000e+00 0.0000000e+00 -1.0000000e+00
      outer loop
         vertex 5.1253604e+00 2.8887395e+01 1.0000000e-06
         vertex 8.2679492e+00 2.9000000e+01 1.0000000e-06
         vertex 8.5857864e+00 2.8585786e+01 1.0000000e-06
      endloop
   endfacet
   facet normal 0.0000000e+00 -0.0000000e+00 -1.0000000e+00
      outer loop
         vertex 5.1253604e+00 2.8887395e+01 1.0000000e-06
         vertex 8.5857864e+00 2.8585786e+01 1.0000000e-06
         vertex 5.4951557e+00 2.7830581e+01 1.0000000e-06
      endloop
   endfacet
   facet normal 0.0000000e+00 0.0000000e+00 -1.0000000e+00
      outer loop
         vertex 5.4951557e+00 2.7830581e+01 1.0000000e-06
         vertex 8.5857864e+00 2.8585786e+01 1.0000000e-06
         vertex 9.0000000e+00 2.8267949e+01 1.0000000e-06
      endloop
   endfacet
   facet normal 0.0000000e+00 0.0000000e+00 -1.0000000e+00
      outer loop
         vertex 5.4951557e+00 2.7830581e+01 1.0000000e-06
         vertex 9.0000000e+00 2.8267949e+01 1.0000000e-06
         vertex 9.4823619e+00 2.8068148e+01 1.0000000e-06
      endloop
   endfacet
   facet normal 0.0000000e+00 -0.0000000e+00 -1.0000000e+00
      outer loop
         vertex 5.4951557e+00 2.7830581e+01 1.0000000e-06
         vertex 9.4823619e+00 2.8068148e+01 1.0000000e-06
         vertex 6.0908426e+00 2.6882551e+01 1.0000000e-06
      endloop
   endfacet
   facet normal 0.0000000e+00 0.0000000e+00 -1.0000000e+00
      outer loop
         vertex 6.0908426e+00 2.6882551e+01 1.0000000e-06
         vertex 9.4823619e+00 2.8068148e+01 1.0000000e-06
         vertex 1.0000000e+01 2.8000000e+01 1.0000000e-06
      endloop
   endfacet
   facet normal 0.0000000e+00 -0.0000000e+00 -1.0000000e+00
      outer loop
         vertex 6.0908426e+00 2.6882551e+01 1.0000000e-06
         vertex 1.0000000e+01 2.8000000e+01 1.0000000e-06
         vertex 6.8825510e+00 2.6090843e+01 1.0000000e-06
      endloop
   endfacet
   facet normal 0.0000000e+00 -0.0000000e+00 -1.0000000e+00
      outer loop
         vertex 6.8825510e+00 2.6090843e+01 1.0000000e-06
         vertex 1.0000000e+01 2.8000000e+01 1.0000000e-06
         vertex 7.8305813e+00 2.5495156e+01 1.0000000e-06
      endloop
   endfacet
   facet normal 0.0000000e+00 0.0000000e+00 -1.0000000e+00
      outer loop
         vertex 7.8305813e+00 2.5495156e+01 1.0000000e-06
         vertex 1.0000000e+01 2.8000000e+01 1.0000000e-06
         vertex 1.0000000e+01 2.5000000e+01 1.0000000e-06
      endloop
   endfacet
   facet normal -0.0000000e+00 -0.0000000e+00 -1.0000000e+00
      outer loop
         vertex 7.8305813e+00 2.5495156e+01 1.0000000e-06
         vertex 1.0000000e+01 2.5000000e+01 1.0000000e-06
         vertex 8.8873953e+00 2.5125360e+01 1.0000000e-06
      endloop
   endfacet
   facet normal 0.0000000e+00 -0.0000000e+00 -1.0000000e+00
      outer loop
         vertex 1.0000000e+01 2.8000000e+01 1.0000000e-06
         vertex 3.0000000e+01 2.8000000e+01 1.0000000e-06
         vertex 1.0000000e+01 2.5000000e+01 1.0000000e-06
      endloop
   endfacet
   facet normal 0.0000000e+00 0.0000000e+00 -1.0000000e+00
      outer loop
         vertex 1.0000000e+01 2.5000000e+01 1.0000000e-06
         vertex 3.0000000e+01 2.8000000e+01 1.0000000e-06
         vertex 3.0000000e+01 2.5000000e+01 1.0000000e-06
      endloop
   endfacet
   facet normal 0.0000000e+00 0.0000000e+00 -1.0000000e+00
      outer loop
         vertex 3.0000000e+01 2.5000000e+01 1.0000000e-06
         vertex 3.0000000e+01 2.8000000e+01 1.0000000e-06
         vertex 3.2169419e+01 2.5495156e+01 1.0000000e-06
      endloop
   endfacet
   facet normal 0.0000000e+00 -0.0000000e+00 -1.0000000e+00
      outer loop
         vertex 3.0000000e+01 2.5000000e+01 1.0000000e-06
         vertex 3.2169419e+01 2.5495156e+01 1.0000000e-06
         vertex 3.1112605e+01 2.5125360e+01 1.0000000e-06
      endloop
   endfacet
   facet normal -0.0000000e+00 -0.0000000e+00 -1.0000000e+00
      outer loop
         vertex 3.0517638e+01 2.8068148e+01 1.0000000e-06
         vertex 3.3909157e+01 2.6882551e+01 1.0000000e-06
         vertex 3.0000000e+01 2.8000000e+01 1.0000000e-06
      endloop
   endfacet
   facet normal 0.0000000e+00 -0.0000000e+00 -1.0000000e+00
      outer loop
         vertex 3.0000000e+01 2.8000000e+01 1.0000000e-06
         vertex 3.3909157e+01 2.6882551e+01 1.0000000e-06
         vertex 3.3117449e+01 2.6090843e+01 1.0000000e-06
      endloop
   endfacet
   facet normal 0.0000000e+00 -0.0000000e+00 -1.0000000e+00
      outer loop
         vertex 3.0000000e+01 2.8000000e+01 1.0000000e-06
         vertex 3.3117449e+01 2.6090843e+01 1.0000000e-06
         vertex 3.2169419e+01 2.5495156e+01 1.0000000e-06
      endloop
   endfacet
   facet normal 0.0000000e+00 0.0000000e+00 -1.0000000e+00
      outer loop
         vertex 3.3909157e+01 2.6882551e+01 1.0000000e-06
         vertex 3.0517638e+01 2.8068148e+01 1.0000000e-06
         vertex 3.4504844e+01 2.7830581e+01 1.0000000e-06
      endloop
   endfacet
   facet normal 0.0000000e+00 0.0000000e+00 -1.0000000e+00
      outer loop
         vertex 3.4504844e+01 2.7830581e+01 1.0000000e-06
         vertex 3.0517638e+01 2.8068148e+01 1.0000000e-06
         vertex 3.1000000e+01 2.8267949e+01 1.0000000e-06
      endloop
   endfacet
   facet normal 0.0000000e+00 0.0000000e+00 -1.0000000e+00
      outer loop
         vertex 3.4504844e+01 2.7830581e+01 1.0000000e-06
         vertex 3.1000000e+01 2.8267949e+01 1.0000000e-06
         vertex 3.1414214e+01 2.8585786e+01 1.0000000e-06
      endloop
   endfacet
   facet normal 0.0000000e+00 0.0000000e+00 -1.0000000e+00
      outer loop
         vertex 3.4504844e+01 2.7830581e+01 1.0000000e-06
         vertex 3.1414214e+01 2.8585786e+01 1.0000000e-06
         vertex 3.4874640e+01 2.8887395e+01 1.0000000e-06
      endloop
   endfacet
   facet normal -0.0000000e+00 0.0000000e+00 -1.0000000e+00
      outer loop
         vertex 3.4874640e+01 2.8887395e+01 1.0000000e-06
         vertex 3.1414214e+01 2.8585786e+01 1.0000000e-06
         vertex 3.1732051e+01 2.9000000e+01 1.0000000e-06
      endloop
   endfacet
   facet normal 0.0000000e+00 0.0000000e+00 -1.0000000e+00
      outer loop
         vertex 3.4874640e+01 2.8887395e+01 1.0000000e-06
         vertex 3.1732051e+01 2.9000000e+01 1.0000000e-06
         vertex 3.1931852e+01 2.9482362e+01 1.0000000e-06
      endloop
   endfacet
   facet normal 0.0000000e+00 0.0000000e+00 -1.0000000e+00
      outer loop
         vertex 3.4874640e+01 2.8887395e+01 1.0000000e-06
         vertex 3.1931852e+01 2.9482362e+01 1.0000000e-06
         vertex 3.5000000e+01 3.0000000e+01 1.0000000e-06
      endloop
   endfacet
   facet normal -0.0000000e+00 0.0000000e+00 -1.0000000e+00
      outer loop
         vertex 3.5000000e+01 3.0000000e+01 1.0000000e-06
         vertex 3.1931852e+01 2.9482362e+01 1.0000000e-06
         vertex 3.2000000e+01 3.0000000e+01 1.0000000e-06
      endloop
   endfacet
   facet normal 0.0000000e+00 0.0000000e+00 -1.0000000e+00
      outer loop
         vertex 3.5000000e+01 3.0000000e+01 1.0000000e-06
         vertex 3.2000000e+01 3.0000000e+01 1.0000000e-06
         vertex 3.1931852e+01 3.0517638e+01 1.0000000e-06
      endloop
   endfacet
   facet normal 0.0000000e+00 0.0000000e+00 -1.0000000e+00
      outer loop
         vertex 3.5000000e+01 3.0000000e+01 1.0000000e-06
         vertex 3.1931852e+01 3.0517638e+01 1.0000000e-06
         vertex 3.4874640e+01 3.1112605e+01 1.0000000e-06
      endloop
   endfacet
   facet normal -0.0000000e+00 0.0000000e+00 -1.0000000e+00
      outer loop
         vertex 3.4874640e+01 3.1112605e+01 1.0000000e-06
         vertex 3.1931852e+01 3.0517638e+01 1.0000000e-06
         vertex 3.1732051e+01 3.1000000e+01 1.0000000e-06
      endloop
   endfacet
   facet normal -0.0000000e+00 0.0000000e+00 -1.0000000e+00
      outer loop
         vertex 3.4874640e+01 3.1112605e+01 1.0000000e-06
         vertex 3.1732051e+01 3.1000000e+01 1.0000000e-06
         vertex 3.1414214e+01 3.1414214e+01 1.0000000e-06
      endloop
   endfacet
   facet normal 0.0000000e+00 0.0000000e+00 -1.0000000e+00
      outer loop
         vertex 3.4874640e+01 3.1112605e+01 1.0000000e-06
         vertex 3.1414214e+01 3.1414214e+01 1.0000000e-06
         vertex 3.4504844e+01 3.2169419e+01 1.0000000e-06
      endloop
   endfacet
   facet normal -0.0000000e+00 0.0000000e+00 -1.0000000e+00
      outer loop
         vertex 3.4504844e+01 3.2169419e+01 1.0000000e-06
         vertex 3.1414214e+01 3.1414214e+01 1.0000000e-06
         vertex 3.1000000e+01 3.1732051e+01 1.0000000e-06
      endloop
   endfacet
   facet normal -0.0000000e+00 0.0000000e+00 -1.0000000e+00
      outer loop
         vertex 3.4504844e+01 3.2169419e+01 1.0000000e-06
         vertex 3.1000000e+01 3.1732051e+01 1.0000000e-06
         vertex 3.0517638e+01 3.1931852e+01 1.0000000e-06
      endloop
   endfacet
   facet normal -0.0000000e+00 0.0000000e+00 -1.0000000e+00
      outer loop
         vertex 3.4504844e+01 3.2169419e+01 1.0000000e-06
         vertex 3.0517638e+01 3.1931852e+01 1.0000000e-06
         vertex 3.3909157e+01 3.3117449e+01 1.0000000e-06
      endloop
   endfacet
   facet normal -0.0000000e+00 0.0000000e+00 -1.0000000e+00
      outer loop
         vertex 3.3909157e+01 3.3117449e+01 1.0000000e-06
         vertex 3.0517638e+01 3.1931852e+01 1.0000000e-06
         vertex 3.0000000e+01 3.2000000e+01 1.0000000e-06
      endloop
   endfacet
   facet normal -0.0000000e+00 0.0000000e+00 -1.0000000e+00
      outer loop
         vertex 3.3909157e+01 3.3117449e+01 1.0000000e-06
         vertex 3.0000000e+01 3.2000000e+01 1.0000000e-06
         vertex 3.3117449e+01 3.3909157e+01 1.0000000e-06
      endloop
   endfacet
   facet normal -0.0000000e+00 0.0000000e+00 -1.0000000e+00
      outer loop
         vertex 3.3117449e+01 3.3909157e+01 1.0000000e-06
         vertex 3.0000000e+01 3.2000000e+01 1.0000000e-06
         vertex 3.2169419e+01 3.4504844e+01 1.0000000e-06
      endloop
   endfacet
   facet normal -0.0000000e+00 0.0000000e+00 -1.0000000e+00
      outer loop
         vertex 3.2169419e+01 3.4504844e+01 1.0000000e-06
         vertex 3.0000000e+01 3.2000000e+01 1.0000000e-06
         vertex 3.0000000e+01 3.5000000e+01 1.0000000e-06
      endloop
   endfacet
   facet normal 0.0000000e+00 0.0000000e+00 -1.0000000e+00
      outer loop
         vertex 3.2169419e+01 3.4504844e+01 1.0000000e-06
         vertex 3.0000000e+01 3.5000000e+01 1.0000000e-06
         vertex 3.1112605e+01 3.4874640e+01 1.0000000e-06
      endloop
   endfacet
   facet normal 0.0000000e+00 0.0000000e+00 -1.0000000e+00
      outer loop
         vertex 3.0000000e+01 3.2000000e+01 1.0000000e-06
         vertex 1.0000000e+01 3.2000000e+01 1.0000000e-06
         vertex 3.0000000e+01 3.5000000e+01 1.0000000e-06
      endloop
   endfacet
   facet normal -0.0000000e+00 0.0000000e+00 -1.0000000e+00
      outer loop
         vertex 3.0000000e+01 3.5000000e+01 1.0000000e-06
         vertex 1.0000000e+01 3.2000000e+01 1.0000000e-06
         vertex 1.0000000e+01 3.5000000e+01 1.0000000e-06
      endloop
   endfacet
   facet normal -0.0000000e+00 -0.0000000e+00 -1.0000000e+00
      outer loop
         vertex 1.0000000e+01 3.5000000e+01 1.0000000e-06
         vertex 1.0000000e+01 3.2000000e+01 1.0000000e-06
         vertex 7.8305813e+00 3.4504844e+01 1.0000000e-06
      endloop
   endfacet
   facet normal -0.0000000e+00 0.0000000e+00 -1.0000000e+00
      outer loop
         vertex 1.0000000e+01 3.5000000e+01 1.0000000e-06
         vertex 7.8305813e+00 3.4504844e+01 1.0000000e-06
         vertex 8.8873953e+00 3.4874640e+01 1.0000000e-06
      endloop
   endfacet
endsolid AutoCAD
