solid AutoCAD
   facet normal -9.9270887e-01 -1.2053668e-01 -0.0000000e+00
      outer loop
         vertex 1.2194188e+02 8.0478631e+01 4.0000010e+00
         vertex 1.2194188e+02 8.0478631e+01 1.0000000e-06
         vertex 1.2200000e+02 8.0000000e+01 4.0000010e+00
      endloop
   endfacet
   facet normal -9.9270887e-01 -1.2053668e-01 0.0000000e+00
      outer loop
         vertex 1.2200000e+02 8.0000000e+01 4.0000010e+00
         vertex 1.2194188e+02 8.0478631e+01 1.0000000e-06
         vertex 1.2200000e+02 8.0000000e+01 1.0000000e-06
      endloop
   endfacet
   facet normal -9.9270887e-01 1.2053668e-01 0.0000000e+00
      outer loop
         vertex 1.2200000e+02 8.0000000e+01 4.0000010e+00
         vertex 1.2200000e+02 8.0000000e+01 1.0000000e-06
         vertex 1.2194188e+02 7.9521369e+01 4.0000010e+00
      endloop
   endfacet
   facet normal -9.9270887e-01 1.2053668e-01 0.0000000e+00
      outer loop
         vertex 1.2194188e+02 7.9521369e+01 4.0000010e+00
         vertex 1.2200000e+02 8.0000000e+01 1.0000000e-06
         vertex 1.2194188e+02 7.9521369e+01 1.0000000e-06
      endloop
   endfacet
   facet normal -9.3501624e-01 3.5460489e-01 0.0000000e+00
      outer loop
         vertex 1.2194188e+02 7.9521369e+01 4.0000010e+00
         vertex 1.2194188e+02 7.9521369e+01 1.0000000e-06
         vertex 1.2177091e+02 7.9070554e+01 4.0000010e+00
      endloop
   endfacet
   facet normal -9.3501624e-01 3.5460489e-01 0.0000000e+00
      outer loop
         vertex 1.2177091e+02 7.9070554e+01 4.0000010e+00
         vertex 1.2194188e+02 7.9521369e+01 1.0000000e-06
         vertex 1.2177091e+02 7.9070554e+01 1.0000000e-06
      endloop
   endfacet
   facet normal -8.2298387e-01 5.6806475e-01 0.0000000e+00
      outer loop
         vertex 1.2177091e+02 7.9070554e+01 4.0000010e+00
         vertex 1.2177091e+02 7.9070554e+01 1.0000000e-06
         vertex 1.2149702e+02 7.8673755e+01 4.0000010e+00
      endloop
   endfacet
   facet normal -8.2298387e-01 5.6806475e-01 0.0000000e+00
      outer loop
         vertex 1.2149702e+02 7.8673755e+01 4.0000010e+00
         vertex 1.2177091e+02 7.9070554e+01 1.0000000e-06
         vertex 1.2149702e+02 7.8673755e+01 1.0000000e-06
      endloop
   endfacet
   facet normal -6.6312266e-01 7.4851075e-01 0.0000000e+00
      outer loop
         vertex 1.2149702e+02 7.8673755e+01 4.0000010e+00
         vertex 1.2149702e+02 7.8673755e+01 1.0000000e-06
         vertex 1.2113613e+02 7.8354032e+01 4.0000010e+00
      endloop
   endfacet
   facet normal -6.6312266e-01 7.4851075e-01 0.0000000e+00
      outer loop
         vertex 1.2113613e+02 7.8354032e+01 4.0000010e+00
         vertex 1.2149702e+02 7.8673755e+01 1.0000000e-06
         vertex 1.2113613e+02 7.8354032e+01 1.0000000e-06
      endloop
   endfacet
   facet normal -4.6472317e-01 8.8545603e-01 0.0000000e+00
      outer loop
         vertex 1.2113613e+02 7.8354032e+01 4.0000010e+00
         vertex 1.2113613e+02 7.8354032e+01 1.0000000e-06
         vertex 1.2070921e+02 7.8129968e+01 4.0000010e+00
      endloop
   endfacet
   facet normal -4.6472317e-01 8.8545603e-01 0.0000000e+00
      outer loop
         vertex 1.2070921e+02 7.8129968e+01 4.0000010e+00
         vertex 1.2113613e+02 7.8354032e+01 1.0000000e-06
         vertex 1.2070921e+02 7.8129968e+01 1.0000000e-06
      endloop
   endfacet
   facet normal -2.3931566e-01 9.7094182e-01 0.0000000e+00
      outer loop
         vertex 1.2070921e+02 7.8129968e+01 4.0000010e+00
         vertex 1.2070921e+02 7.8129968e+01 1.0000000e-06
         vertex 1.2024107e+02 7.8014582e+01 4.0000010e+00
      endloop
   endfacet
   facet normal -2.3931566e-01 9.7094182e-01 0.0000000e+00
      outer loop
         vertex 1.2024107e+02 7.8014582e+01 4.0000010e+00
         vertex 1.2070921e+02 7.8129968e+01 1.0000000e-06
         vertex 1.2024107e+02 7.8014582e+01 1.0000000e-06
      endloop
   endfacet
   facet normal 0.0000000e+00 1.0000000e+00 0.0000000e+00
      outer loop
         vertex 1.2024107e+02 7.8014582e+01 4.0000010e+00
         vertex 1.2024107e+02 7.8014582e+01 1.0000000e-06
         vertex 1.1975893e+02 7.8014582e+01 4.0000010e+00
      endloop
   endfacet
   facet normal 0.0000000e+00 1.0000000e+00 0.0000000e+00
      outer loop
         vertex 1.1975893e+02 7.8014582e+01 4.0000010e+00
         vertex 1.2024107e+02 7.8014582e+01 1.0000000e-06
         vertex 1.1975893e+02 7.8014582e+01 1.0000000e-06
      endloop
   endfacet
   facet normal 2.3931566e-01 9.7094182e-01 0.0000000e+00
      outer loop
         vertex 1.1975893e+02 7.8014582e+01 4.0000010e+00
         vertex 1.1975893e+02 7.8014582e+01 1.0000000e-06
         vertex 1.1929079e+02 7.8129968e+01 4.0000010e+00
      endloop
   endfacet
   facet normal 2.3931566e-01 9.7094182e-01 0.0000000e+00
      outer loop
         vertex 1.1929079e+02 7.8129968e+01 4.0000010e+00
         vertex 1.1975893e+02 7.8014582e+01 1.0000000e-06
         vertex 1.1929079e+02 7.8129968e+01 1.0000000e-06
      endloop
   endfacet
   facet normal 4.6472317e-01 8.8545603e-01 0.0000000e+00
      outer loop
         vertex 1.1929079e+02 7.8129968e+01 4.0000010e+00
         vertex 1.1929079e+02 7.8129968e+01 1.0000000e-06
         vertex 1.1886387e+02 7.8354032e+01 4.0000010e+00
      endloop
   endfacet
   facet normal 4.6472317e-01 8.8545603e-01 0.0000000e+00
      outer loop
         vertex 1.1886387e+02 7.8354032e+01 4.0000010e+00
         vertex 1.1929079e+02 7.8129968e+01 1.0000000e-06
         vertex 1.1886387e+02 7.8354032e+01 1.0000000e-06
      endloop
   endfacet
   facet normal 6.6312266e-01 7.4851075e-01 0.0000000e+00
      outer loop
         vertex 1.1886387e+02 7.8354032e+01 4.0000010e+00
         vertex 1.1886387e+02 7.8354032e+01 1.0000000e-06
         vertex 1.1850298e+02 7.8673755e+01 4.0000010e+00
      endloop
   endfacet
   facet normal 6.6312266e-01 7.4851075e-01 0.0000000e+00
      outer loop
         vertex 1.1850298e+02 7.8673755e+01 4.0000010e+00
         vertex 1.1886387e+02 7.8354032e+01 1.0000000e-06
         vertex 1.1850298e+02 7.8673755e+01 1.0000000e-06
      endloop
   endfacet
   facet normal 8.2298387e-01 5.6806475e-01 0.0000000e+00
      outer loop
         vertex 1.1850298e+02 7.8673755e+01 4.0000010e+00
         vertex 1.1850298e+02 7.8673755e+01 1.0000000e-06
         vertex 1.1822909e+02 7.9070554e+01 4.0000010e+00
      endloop
   endfacet
   facet normal 8.2298387e-01 5.6806475e-01 0.0000000e+00
      outer loop
         vertex 1.1822909e+02 7.9070554e+01 4.0000010e+00
         vertex 1.1850298e+02 7.8673755e+01 1.0000000e-06
         vertex 1.1822909e+02 7.9070554e+01 1.0000000e-06
      endloop
   endfacet
   facet normal 9.3501624e-01 3.5460489e-01 0.0000000e+00
      outer loop
         vertex 1.1822909e+02 7.9070554e+01 4.0000010e+00
         vertex 1.1822909e+02 7.9070554e+01 1.0000000e-06
         vertex 1.1805812e+02 7.9521369e+01 4.0000010e+00
      endloop
   endfacet
   facet normal 9.3501624e-01 3.5460489e-01 0.0000000e+00
      outer loop
         vertex 1.1805812e+02 7.9521369e+01 4.0000010e+00
         vertex 1.1822909e+02 7.9070554e+01 1.0000000e-06
         vertex 1.1805812e+02 7.9521369e+01 1.0000000e-06
      endloop
   endfacet
   facet normal 9.9270887e-01 1.2053668e-01 0.0000000e+00
      outer loop
         vertex 1.1805812e+02 7.9521369e+01 4.0000010e+00
         vertex 1.1805812e+02 7.9521369e+01 1.0000000e-06
         vertex 1.1800000e+02 8.0000000e+01 4.0000010e+00
      endloop
   endfacet
   facet normal 9.9270887e-01 1.2053668e-01 0.0000000e+00
      outer loop
         vertex 1.1800000e+02 8.0000000e+01 4.0000010e+00
         vertex 1.1805812e+02 7.9521369e+01 1.0000000e-06
         vertex 1.1800000e+02 8.0000000e+01 1.0000000e-06
      endloop
   endfacet
   facet normal 9.9270887e-01 -1.2053668e-01 0.0000000e+00
      outer loop
         vertex 1.1800000e+02 8.0000000e+01 4.0000010e+00
         vertex 1.1800000e+02 8.0000000e+01 1.0000000e-06
         vertex 1.1805812e+02 8.0478631e+01 4.0000010e+00
      endloop
   endfacet
   facet normal 9.9270887e-01 -1.2053668e-01 0.0000000e+00
      outer loop
         vertex 1.1805812e+02 8.0478631e+01 4.0000010e+00
         vertex 1.1800000e+02 8.0000000e+01 1.0000000e-06
         vertex 1.1805812e+02 8.0478631e+01 1.0000000e-06
      endloop
   endfacet
   facet normal 9.3501624e-01 -3.5460489e-01 0.0000000e+00
      outer loop
         vertex 1.1805812e+02 8.0478631e+01 4.0000010e+00
         vertex 1.1805812e+02 8.0478631e+01 1.0000000e-06
         vertex 1.1822909e+02 8.0929446e+01 4.0000010e+00
      endloop
   endfacet
   facet normal 9.3501624e-01 -3.5460489e-01 0.0000000e+00
      outer loop
         vertex 1.1822909e+02 8.0929446e+01 4.0000010e+00
         vertex 1.1805812e+02 8.0478631e+01 1.0000000e-06
         vertex 1.1822909e+02 8.0929446e+01 1.0000000e-06
      endloop
   endfacet
   facet normal 8.2298387e-01 -5.6806475e-01 0.0000000e+00
      outer loop
         vertex 1.1822909e+02 8.0929446e+01 4.0000010e+00
         vertex 1.1822909e+02 8.0929446e+01 1.0000000e-06
         vertex 1.1850298e+02 8.1326245e+01 4.0000010e+00
      endloop
   endfacet
   facet normal 8.2298387e-01 -5.6806475e-01 0.0000000e+00
      outer loop
         vertex 1.1850298e+02 8.1326245e+01 4.0000010e+00
         vertex 1.1822909e+02 8.0929446e+01 1.0000000e-06
         vertex 1.1850298e+02 8.1326245e+01 1.0000000e-06
      endloop
   endfacet
   facet normal 6.6312266e-01 -7.4851075e-01 0.0000000e+00
      outer loop
         vertex 1.1850298e+02 8.1326245e+01 4.0000010e+00
         vertex 1.1850298e+02 8.1326245e+01 1.0000000e-06
         vertex 1.1886387e+02 8.1645968e+01 4.0000010e+00
      endloop
   endfacet
   facet normal 6.6312266e-01 -7.4851075e-01 0.0000000e+00
      outer loop
         vertex 1.1886387e+02 8.1645968e+01 4.0000010e+00
         vertex 1.1850298e+02 8.1326245e+01 1.0000000e-06
         vertex 1.1886387e+02 8.1645968e+01 1.0000000e-06
      endloop
   endfacet
   facet normal 4.6472317e-01 -8.8545603e-01 0.0000000e+00
      outer loop
         vertex 1.1886387e+02 8.1645968e+01 4.0000010e+00
         vertex 1.1886387e+02 8.1645968e+01 1.0000000e-06
         vertex 1.1929079e+02 8.1870032e+01 4.0000010e+00
      endloop
   endfacet
   facet normal 4.6472317e-01 -8.8545603e-01 0.0000000e+00
      outer loop
         vertex 1.1929079e+02 8.1870032e+01 4.0000010e+00
         vertex 1.1886387e+02 8.1645968e+01 1.0000000e-06
         vertex 1.1929079e+02 8.1870032e+01 1.0000000e-06
      endloop
   endfacet
   facet normal 2.3931566e-01 -9.7094182e-01 0.0000000e+00
      outer loop
         vertex 1.1929079e+02 8.1870032e+01 4.0000010e+00
         vertex 1.1929079e+02 8.1870032e+01 1.0000000e-06
         vertex 1.1975893e+02 8.1985418e+01 4.0000010e+00
      endloop
   endfacet
   facet normal 2.3931566e-01 -9.7094182e-01 0.0000000e+00
      outer loop
         vertex 1.1975893e+02 8.1985418e+01 4.0000010e+00
         vertex 1.1929079e+02 8.1870032e+01 1.0000000e-06
         vertex 1.1975893e+02 8.1985418e+01 1.0000000e-06
      endloop
   endfacet
   facet normal 0.0000000e+00 -1.0000000e+00 0.0000000e+00
      outer loop
         vertex 1.1975893e+02 8.1985418e+01 4.0000010e+00
         vertex 1.1975893e+02 8.1985418e+01 1.0000000e-06
         vertex 1.2024107e+02 8.1985418e+01 4.0000010e+00
      endloop
   endfacet
   facet normal 0.0000000e+00 -1.0000000e+00 -0.0000000e+00
      outer loop
         vertex 1.2024107e+02 8.1985418e+01 4.0000010e+00
         vertex 1.1975893e+02 8.1985418e+01 1.0000000e-06
         vertex 1.2024107e+02 8.1985418e+01 1.0000000e-06
      endloop
   endfacet
   facet normal -2.3931566e-01 -9.7094182e-01 -0.0000000e+00
      outer loop
         vertex 1.2024107e+02 8.1985418e+01 4.0000010e+00
         vertex 1.2024107e+02 8.1985418e+01 1.0000000e-06
         vertex 1.2070921e+02 8.1870032e+01 4.0000010e+00
      endloop
   endfacet
   facet normal -2.3931566e-01 -9.7094182e-01 0.0000000e+00
      outer loop
         vertex 1.2070921e+02 8.1870032e+01 4.0000010e+00
         vertex 1.2024107e+02 8.1985418e+01 1.0000000e-06
         vertex 1.2070921e+02 8.1870032e+01 1.0000000e-06
      endloop
   endfacet
   facet normal -4.6472317e-01 -8.8545603e-01 -0.0000000e+00
      outer loop
         vertex 1.2070921e+02 8.1870032e+01 4.0000010e+00
         vertex 1.2070921e+02 8.1870032e+01 1.0000000e-06
         vertex 1.2113613e+02 8.1645968e+01 4.0000010e+00
      endloop
   endfacet
   facet normal -4.6472317e-01 -8.8545603e-01 0.0000000e+00
      outer loop
         vertex 1.2113613e+02 8.1645968e+01 4.0000010e+00
         vertex 1.2070921e+02 8.1870032e+01 1.0000000e-06
         vertex 1.2113613e+02 8.1645968e+01 1.0000000e-06
      endloop
   endfacet
   facet normal -6.6312266e-01 -7.4851075e-01 -0.0000000e+00
      outer loop
         vertex 1.2113613e+02 8.1645968e+01 4.0000010e+00
         vertex 1.2113613e+02 8.1645968e+01 1.0000000e-06
         vertex 1.2149702e+02 8.1326245e+01 4.0000010e+00
      endloop
   endfacet
   facet normal -6.6312266e-01 -7.4851075e-01 0.0000000e+00
      outer loop
         vertex 1.2149702e+02 8.1326245e+01 4.0000010e+00
         vertex 1.2113613e+02 8.1645968e+01 1.0000000e-06
         vertex 1.2149702e+02 8.1326245e+01 1.0000000e-06
      endloop
   endfacet
   facet normal -8.2298387e-01 -5.6806475e-01 -0.0000000e+00
      outer loop
         vertex 1.2149702e+02 8.1326245e+01 4.0000010e+00
         vertex 1.2149702e+02 8.1326245e+01 1.0000000e-06
         vertex 1.2177091e+02 8.0929446e+01 4.0000010e+00
      endloop
   endfacet
   facet normal -8.2298387e-01 -5.6806475e-01 0.0000000e+00
      outer loop
         vertex 1.2177091e+02 8.0929446e+01 4.0000010e+00
         vertex 1.2149702e+02 8.1326245e+01 1.0000000e-06
         vertex 1.2177091e+02 8.0929446e+01 1.0000000e-06
      endloop
   endfacet
   facet normal -9.3501624e-01 -3.5460489e-01 -0.0000000e+00
      outer loop
         vertex 1.2177091e+02 8.0929446e+01 4.0000010e+00
         vertex 1.2177091e+02 8.0929446e+01 1.0000000e-06
         vertex 1.2194188e+02 8.0478631e+01 4.0000010e+00
      endloop
   endfacet
   facet normal -9.3501624e-01 -3.5460489e-01 0.0000000e+00
      outer loop
         vertex 1.2194188e+02 8.0478631e+01 4.0000010e+00
         vertex 1.2177091e+02 8.0929446e+01 1.0000000e-06
         vertex 1.2194188e+02 8.0478631e+01 1.0000000e-06
      endloop
   endfacet
   facet normal -9.9705909e-01 7.6548738e-02 3.6677239e-03
      outer loop
         vertex 1.1505860e+02 8.0763246e+01 4.0000010e+00
         vertex 1.1501467e+02 8.0382746e+01 1.0000000e-06
         vertex 1.1500000e+02 8.0000000e+01 4.0000010e+00
      endloop
   endfacet
   facet normal -9.9999327e-01 -0.0000000e+00 -3.6677239e-03
      outer loop
         vertex 1.1500000e+02 8.0000000e+01 4.0000010e+00
         vertex 1.1501467e+02 8.0382746e+01 1.0000000e-06
         vertex 1.1501467e+02 7.9617254e+01 1.0000000e-06
      endloop
   endfacet
   facet normal -9.9705909e-01 -7.6548738e-02 3.6677239e-03
      outer loop
         vertex 1.1500000e+02 8.0000000e+01 4.0000010e+00
         vertex 1.1501467e+02 7.9617254e+01 1.0000000e-06
         vertex 1.1505860e+02 7.9236754e+01 4.0000010e+00
      endloop
   endfacet
   facet normal -9.8827378e-01 -1.5264826e-01 -3.6677239e-03
      outer loop
         vertex 1.1505860e+02 7.9236754e+01 4.0000010e+00
         vertex 1.1501467e+02 7.9617254e+01 1.0000000e-06
         vertex 1.1513152e+02 7.8860732e+01 1.0000000e-06
      endloop
   endfacet
   facet normal -9.7368887e-01 -2.2785198e-01 3.6677239e-03
      outer loop
         vertex 1.1505860e+02 7.9236754e+01 4.0000010e+00
         vertex 1.1513152e+02 7.8860732e+01 1.0000000e-06
         vertex 1.1523302e+02 7.8491397e+01 4.0000010e+00
      endloop
   endfacet
   facet normal -9.5338998e-01 -3.0171857e-01 -3.6677239e-03
      outer loop
         vertex 1.1523302e+02 7.8491397e+01 4.0000010e+00
         vertex 1.1513152e+02 7.8860732e+01 1.0000000e-06
         vertex 1.1536249e+02 7.8130915e+01 1.0000000e-06
      endloop
   endfacet
   facet normal -9.2749621e-01 -3.7381456e-01 3.6677239e-03
      outer loop
         vertex 1.1523302e+02 7.8491397e+01 4.0000010e+00
         vertex 1.1536249e+02 7.8130915e+01 1.0000000e-06
         vertex 1.1551917e+02 7.7781401e+01 4.0000010e+00
      endloop
   endfacet
   facet normal -8.9615953e-01 -4.4371685e-01 -3.6677239e-03
      outer loop
         vertex 1.1551917e+02 7.7781401e+01 4.0000010e+00
         vertex 1.1536249e+02 7.8130915e+01 1.0000000e-06
         vertex 1.1570215e+02 7.7444907e+01 1.0000000e-06
      endloop
   endfacet
   facet normal -8.5956383e-01 -5.1101524e-01 3.6677239e-03
      outer loop
         vertex 1.1551917e+02 7.7781401e+01 4.0000010e+00
         vertex 1.1570215e+02 7.7444907e+01 1.0000000e-06
         vertex 1.1591035e+02 7.7123407e+01 4.0000010e+00
      endloop
   endfacet
   facet normal -8.1792386e-01 -5.7531479e-01 -3.6677239e-03
      outer loop
         vertex 1.1591035e+02 7.7123407e+01 4.0000010e+00
         vertex 1.1570215e+02 7.7444907e+01 1.0000000e-06
         vertex 1.1614255e+02 7.6818788e+01 1.0000000e-06
      endloop
   endfacet
   facet normal -7.7148399e-01 -6.3623816e-01 3.6677239e-03
      outer loop
         vertex 1.1591035e+02 7.7123407e+01 4.0000010e+00
         vertex 1.1614255e+02 7.6818788e+01 1.0000000e-06
         vertex 1.1639739e+02 7.6532837e+01 4.0000010e+00
      endloop
   endfacet
   facet normal -7.2051675e-01 -6.9342784e-01 -3.6677239e-03
      outer loop
         vertex 1.1639739e+02 7.6532837e+01 4.0000010e+00
         vertex 1.1614255e+02 7.6818788e+01 1.0000000e-06
         vertex 1.1667337e+02 7.6267234e+01 1.0000000e-06
      endloop
   endfacet
   facet normal -6.6532123e-01 -7.4654820e-01 3.6677239e-03
      outer loop
         vertex 1.1639739e+02 7.6532837e+01 4.0000010e+00
         vertex 1.1667337e+02 7.6267234e+01 1.0000000e-06
         vertex 1.1696887e+02 7.6023536e+01 4.0000010e+00
      endloop
   endfacet
   facet normal -6.0622133e-01 -7.9528752e-01 -3.6677239e-03
      outer loop
         vertex 1.1696887e+02 7.6023536e+01 4.0000010e+00
         vertex 1.1667337e+02 7.6267234e+01 1.0000000e-06
         vertex 1.1728216e+02 7.5803173e+01 1.0000000e-06
      endloop
   endfacet
   facet normal -5.4356389e-01 -8.3935978e-01 3.6677239e-03
      outer loop
         vertex 1.1696887e+02 7.6023536e+01 4.0000010e+00
         vertex 1.1728216e+02 7.5803173e+01 1.0000000e-06
         vertex 1.1761140e+02 7.5607439e+01 4.0000010e+00
      endloop
   endfacet
   facet normal -4.7771661e-01 -8.7850634e-01 -3.6677239e-03
      outer loop
         vertex 1.1761140e+02 7.5607439e+01 4.0000010e+00
         vertex 1.1728216e+02 7.5803173e+01 1.0000000e-06
         vertex 1.1795466e+02 7.5437482e+01 1.0000000e-06
      endloop
   endfacet
   facet normal -4.0906589e-01 -9.1249748e-01 3.6677239e-03
      outer loop
         vertex 1.1761140e+02 7.5607439e+01 4.0000010e+00
         vertex 1.1795466e+02 7.5437482e+01 1.0000000e-06
         vertex 1.1830992e+02 7.5294300e+01 4.0000010e+00
      endloop
   endfacet
   facet normal -3.3801460e-01 -9.4113372e-01 -3.6677239e-03
      outer loop
         vertex 1.1830992e+02 7.5294300e+01 4.0000010e+00
         vertex 1.1795466e+02 7.5437482e+01 1.0000000e-06
         vertex 1.1867509e+02 7.5178733e+01 1.0000000e-06
      endloop
   endfacet
   facet normal -2.6497972e-01 -9.6424701e-01 3.6677239e-03
      outer loop
         vertex 1.1830992e+02 7.5294300e+01 4.0000010e+00
         vertex 1.1867509e+02 7.5178733e+01 1.0000000e-06
         vertex 1.1904804e+02 7.5091458e+01 4.0000010e+00
      endloop
   endfacet
   facet normal -1.9038983e-01 -9.8170172e-01 -3.6677239e-03
      outer loop
         vertex 1.1904804e+02 7.5091458e+01 4.0000010e+00
         vertex 1.1867509e+02 7.5178733e+01 1.0000000e-06
         vertex 1.1942658e+02 7.5032990e+01 1.0000000e-06
      endloop
   endfacet
   facet normal -1.1468265e-01 -9.9339541e-01 3.6677239e-03
      outer loop
         vertex 1.1904804e+02 7.5091458e+01 4.0000010e+00
         vertex 1.1942658e+02 7.5032990e+01 1.0000000e-06
         vertex 1.1980849e+02 7.5003669e+01 4.0000010e+00
      endloop
   endfacet
   facet normal -3.8302476e-02 -9.9925946e-01 -3.6677239e-03
      outer loop
         vertex 1.1980849e+02 7.5003669e+01 4.0000010e+00
         vertex 1.1942658e+02 7.5032990e+01 1.0000000e-06
         vertex 1.2019151e+02 7.5003669e+01 1.0000000e-06
      endloop
   endfacet
   facet normal 3.8302476e-02 -9.9925946e-01 3.6677239e-03
      outer loop
         vertex 1.1980849e+02 7.5003669e+01 4.0000010e+00
         vertex 1.2019151e+02 7.5003669e+01 1.0000000e-06
         vertex 1.2057342e+02 7.5032990e+01 4.0000010e+00
      endloop
   endfacet
   facet normal 1.1468265e-01 -9.9339541e-01 -3.6677239e-03
      outer loop
         vertex 1.2057342e+02 7.5032990e+01 4.0000010e+00
         vertex 1.2019151e+02 7.5003669e+01 1.0000000e-06
         vertex 1.2095196e+02 7.5091458e+01 1.0000000e-06
      endloop
   endfacet
   facet normal 1.9038983e-01 -9.8170172e-01 3.6677239e-03
      outer loop
         vertex 1.2057342e+02 7.5032990e+01 4.0000010e+00
         vertex 1.2095196e+02 7.5091458e+01 1.0000000e-06
         vertex 1.2132491e+02 7.5178733e+01 4.0000010e+00
      endloop
   endfacet
   facet normal 2.6497972e-01 -9.6424701e-01 -3.6677239e-03
      outer loop
         vertex 1.2132491e+02 7.5178733e+01 4.0000010e+00
         vertex 1.2095196e+02 7.5091458e+01 1.0000000e-06
         vertex 1.2169008e+02 7.5294300e+01 1.0000000e-06
      endloop
   endfacet
   facet normal 3.3801460e-01 -9.4113372e-01 3.6677239e-03
      outer loop
         vertex 1.2132491e+02 7.5178733e+01 4.0000010e+00
         vertex 1.2169008e+02 7.5294300e+01 1.0000000e-06
         vertex 1.2204534e+02 7.5437482e+01 4.0000010e+00
      endloop
   endfacet
   facet normal 4.0906589e-01 -9.1249748e-01 -3.6677239e-03
      outer loop
         vertex 1.2204534e+02 7.5437482e+01 4.0000010e+00
         vertex 1.2169008e+02 7.5294300e+01 1.0000000e-06
         vertex 1.2238860e+02 7.5607439e+01 1.0000000e-06
      endloop
   endfacet
   facet normal 4.7771661e-01 -8.7850634e-01 3.6677239e-03
      outer loop
         vertex 1.2204534e+02 7.5437482e+01 4.0000010e+00
         vertex 1.2238860e+02 7.5607439e+01 1.0000000e-06
         vertex 1.2271784e+02 7.5803173e+01 4.0000010e+00
      endloop
   endfacet
   facet normal 5.4356389e-01 -8.3935978e-01 -3.6677239e-03
      outer loop
         vertex 1.2271784e+02 7.5803173e+01 4.0000010e+00
         vertex 1.2238860e+02 7.5607439e+01 1.0000000e-06
         vertex 1.2303113e+02 7.6023536e+01 1.0000000e-06
      endloop
   endfacet
   facet normal 6.0622133e-01 -7.9528752e-01 3.6677239e-03
      outer loop
         vertex 1.2271784e+02 7.5803173e+01 4.0000010e+00
         vertex 1.2303113e+02 7.6023536e+01 1.0000000e-06
         vertex 1.2332663e+02 7.6267234e+01 4.0000010e+00
      endloop
   endfacet
   facet normal 6.6532123e-01 -7.4654820e-01 -3.6677239e-03
      outer loop
         vertex 1.2332663e+02 7.6267234e+01 4.0000010e+00
         vertex 1.2303113e+02 7.6023536e+01 1.0000000e-06
         vertex 1.2360261e+02 7.6532837e+01 1.0000000e-06
      endloop
   endfacet
   facet normal 7.2051675e-01 -6.9342784e-01 3.6677239e-03
      outer loop
         vertex 1.2332663e+02 7.6267234e+01 4.0000010e+00
         vertex 1.2360261e+02 7.6532837e+01 1.0000000e-06
         vertex 1.2385745e+02 7.6818788e+01 4.0000010e+00
      endloop
   endfacet
   facet normal 7.7148399e-01 -6.3623816e-01 -3.6677239e-03
      outer loop
         vertex 1.2385745e+02 7.6818788e+01 4.0000010e+00
         vertex 1.2360261e+02 7.6532837e+01 1.0000000e-06
         vertex 1.2408965e+02 7.7123407e+01 1.0000000e-06
      endloop
   endfacet
   facet normal 8.1792386e-01 -5.7531479e-01 3.6677239e-03
      outer loop
         vertex 1.2385745e+02 7.6818788e+01 4.0000010e+00
         vertex 1.2408965e+02 7.7123407e+01 1.0000000e-06
         vertex 1.2429785e+02 7.7444907e+01 4.0000010e+00
      endloop
   endfacet
   facet normal 8.5956383e-01 -5.1101524e-01 -3.6677239e-03
      outer loop
         vertex 1.2429785e+02 7.7444907e+01 4.0000010e+00
         vertex 1.2408965e+02 7.7123407e+01 1.0000000e-06
         vertex 1.2448083e+02 7.7781401e+01 1.0000000e-06
      endloop
   endfacet
   facet normal 8.9615953e-01 -4.4371685e-01 3.6677239e-03
      outer loop
         vertex 1.2429785e+02 7.7444907e+01 4.0000010e+00
         vertex 1.2448083e+02 7.7781401e+01 1.0000000e-06
         vertex 1.2463751e+02 7.8130915e+01 4.0000010e+00
      endloop
   endfacet
   facet normal 9.2749621e-01 -3.7381456e-01 -3.6677239e-03
      outer loop
         vertex 1.2463751e+02 7.8130915e+01 4.0000010e+00
         vertex 1.2448083e+02 7.7781401e+01 1.0000000e-06
         vertex 1.2476698e+02 7.8491397e+01 1.0000000e-06
      endloop
   endfacet
   facet normal 9.5338998e-01 -3.0171857e-01 3.6677239e-03
      outer loop
         vertex 1.2463751e+02 7.8130915e+01 4.0000010e+00
         vertex 1.2476698e+02 7.8491397e+01 1.0000000e-06
         vertex 1.2486848e+02 7.8860732e+01 4.0000010e+00
      endloop
   endfacet
   facet normal 9.7368887e-01 -2.2785198e-01 -3.6677239e-03
      outer loop
         vertex 1.2486848e+02 7.8860732e+01 4.0000010e+00
         vertex 1.2476698e+02 7.8491397e+01 1.0000000e-06
         vertex 1.2494140e+02 7.9236754e+01 1.0000000e-06
      endloop
   endfacet
   facet normal 9.8827378e-01 -1.5264826e-01 3.6677239e-03
      outer loop
         vertex 1.2486848e+02 7.8860732e+01 4.0000010e+00
         vertex 1.2494140e+02 7.9236754e+01 1.0000000e-06
         vertex 1.2498533e+02 7.9617254e+01 4.0000010e+00
      endloop
   endfacet
   facet normal 9.9705909e-01 -7.6548738e-02 -3.6677239e-03
      outer loop
         vertex 1.2498533e+02 7.9617254e+01 4.0000010e+00
         vertex 1.2494140e+02 7.9236754e+01 1.0000000e-06
         vertex 1.2500000e+02 8.0000000e+01 1.0000000e-06
      endloop
   endfacet
   facet normal 9.9999327e-01 0.0000000e+00 3.6677239e-03
      outer loop
         vertex 1.2498533e+02 7.9617254e+01 4.0000010e+00
         vertex 1.2500000e+02 8.0000000e+01 1.0000000e-06
         vertex 1.2498533e+02 8.0382746e+01 4.0000010e+00
      endloop
   endfacet
   facet normal 9.9705909e-01 7.6548738e-02 -3.6677239e-03
      outer loop
         vertex 1.2498533e+02 8.0382746e+01 4.0000010e+00
         vertex 1.2500000e+02 8.0000000e+01 1.0000000e-06
         vertex 1.2494140e+02 8.0763246e+01 1.0000000e-06
      endloop
   endfacet
   facet normal 9.8827378e-01 1.5264826e-01 3.6677239e-03
      outer loop
         vertex 1.2498533e+02 8.0382746e+01 4.0000010e+00
         vertex 1.2494140e+02 8.0763246e+01 1.0000000e-06
         vertex 1.2486848e+02 8.1139268e+01 4.0000010e+00
      endloop
   endfacet
   facet normal 9.7368887e-01 2.2785198e-01 -3.6677239e-03
      outer loop
         vertex 1.2486848e+02 8.1139268e+01 4.0000010e+00
         vertex 1.2494140e+02 8.0763246e+01 1.0000000e-06
         vertex 1.2476698e+02 8.1508603e+01 1.0000000e-06
      endloop
   endfacet
   facet normal 9.5338998e-01 3.0171857e-01 3.6677239e-03
      outer loop
         vertex 1.2486848e+02 8.1139268e+01 4.0000010e+00
         vertex 1.2476698e+02 8.1508603e+01 1.0000000e-06
         vertex 1.2463751e+02 8.1869085e+01 4.0000010e+00
      endloop
   endfacet
   facet normal 9.2749621e-01 3.7381456e-01 -3.6677239e-03
      outer loop
         vertex 1.2463751e+02 8.1869085e+01 4.0000010e+00
         vertex 1.2476698e+02 8.1508603e+01 1.0000000e-06
         vertex 1.2448083e+02 8.2218599e+01 1.0000000e-06
      endloop
   endfacet
   facet normal 8.9615953e-01 4.4371685e-01 3.6677239e-03
      outer loop
         vertex 1.2463751e+02 8.1869085e+01 4.0000010e+00
         vertex 1.2448083e+02 8.2218599e+01 1.0000000e-06
         vertex 1.2429785e+02 8.2555093e+01 4.0000010e+00
      endloop
   endfacet
   facet normal 8.5956383e-01 5.1101524e-01 -3.6677239e-03
      outer loop
         vertex 1.2429785e+02 8.2555093e+01 4.0000010e+00
         vertex 1.2448083e+02 8.2218599e+01 1.0000000e-06
         vertex 1.2408965e+02 8.2876593e+01 1.0000000e-06
      endloop
   endfacet
   facet normal 8.1792386e-01 5.7531479e-01 3.6677239e-03
      outer loop
         vertex 1.2429785e+02 8.2555093e+01 4.0000010e+00
         vertex 1.2408965e+02 8.2876593e+01 1.0000000e-06
         vertex 1.2385745e+02 8.3181212e+01 4.0000010e+00
      endloop
   endfacet
   facet normal 7.7148399e-01 6.3623816e-01 -3.6677239e-03
      outer loop
         vertex 1.2385745e+02 8.3181212e+01 4.0000010e+00
         vertex 1.2408965e+02 8.2876593e+01 1.0000000e-06
         vertex 1.2360261e+02 8.3467163e+01 1.0000000e-06
      endloop
   endfacet
   facet normal 7.2051675e-01 6.9342784e-01 3.6677239e-03
      outer loop
         vertex 1.2385745e+02 8.3181212e+01 4.0000010e+00
         vertex 1.2360261e+02 8.3467163e+01 1.0000000e-06
         vertex 1.2332663e+02 8.3732766e+01 4.0000010e+00
      endloop
   endfacet
   facet normal 6.6532123e-01 7.4654820e-01 -3.6677239e-03
      outer loop
         vertex 1.2332663e+02 8.3732766e+01 4.0000010e+00
         vertex 1.2360261e+02 8.3467163e+01 1.0000000e-06
         vertex 1.2303113e+02 8.3976464e+01 1.0000000e-06
      endloop
   endfacet
   facet normal 6.0622133e-01 7.9528752e-01 3.6677239e-03
      outer loop
         vertex 1.2332663e+02 8.3732766e+01 4.0000010e+00
         vertex 1.2303113e+02 8.3976464e+01 1.0000000e-06
         vertex 1.2271784e+02 8.4196827e+01 4.0000010e+00
      endloop
   endfacet
   facet normal 5.4356389e-01 8.3935978e-01 -3.6677239e-03
      outer loop
         vertex 1.2271784e+02 8.4196827e+01 4.0000010e+00
         vertex 1.2303113e+02 8.3976464e+01 1.0000000e-06
         vertex 1.2238860e+02 8.4392561e+01 1.0000000e-06
      endloop
   endfacet
   facet normal 4.7771661e-01 8.7850634e-01 3.6677239e-03
      outer loop
         vertex 1.2271784e+02 8.4196827e+01 4.0000010e+00
         vertex 1.2238860e+02 8.4392561e+01 1.0000000e-06
         vertex 1.2204534e+02 8.4562518e+01 4.0000010e+00
      endloop
   endfacet
   facet normal 4.0906589e-01 9.1249748e-01 -3.6677239e-03
      outer loop
         vertex 1.2204534e+02 8.4562518e+01 4.0000010e+00
         vertex 1.2238860e+02 8.4392561e+01 1.0000000e-06
         vertex 1.2169008e+02 8.4705700e+01 1.0000000e-06
      endloop
   endfacet
   facet normal 3.3801460e-01 9.4113372e-01 3.6677239e-03
      outer loop
         vertex 1.2204534e+02 8.4562518e+01 4.0000010e+00
         vertex 1.2169008e+02 8.4705700e+01 1.0000000e-06
         vertex 1.2132491e+02 8.4821267e+01 4.0000010e+00
      endloop
   endfacet
   facet normal 2.6497972e-01 9.6424701e-01 -3.6677239e-03
      outer loop
         vertex 1.2132491e+02 8.4821267e+01 4.0000010e+00
         vertex 1.2169008e+02 8.4705700e+01 1.0000000e-06
         vertex 1.2095196e+02 8.4908542e+01 1.0000000e-06
      endloop
   endfacet
   facet normal 1.9038983e-01 9.8170172e-01 3.6677239e-03
      outer loop
         vertex 1.2132491e+02 8.4821267e+01 4.0000010e+00
         vertex 1.2095196e+02 8.4908542e+01 1.0000000e-06
         vertex 1.2057342e+02 8.4967010e+01 4.0000010e+00
      endloop
   endfacet
   facet normal 1.1468265e-01 9.9339541e-01 -3.6677239e-03
      outer loop
         vertex 1.2057342e+02 8.4967010e+01 4.0000010e+00
         vertex 1.2095196e+02 8.4908542e+01 1.0000000e-06
         vertex 1.2019151e+02 8.4996331e+01 1.0000000e-06
      endloop
   endfacet
   facet normal 3.8302476e-02 9.9925946e-01 3.6677239e-03
      outer loop
         vertex 1.2057342e+02 8.4967010e+01 4.0000010e+00
         vertex 1.2019151e+02 8.4996331e+01 1.0000000e-06
         vertex 1.1980849e+02 8.4996331e+01 4.0000010e+00
      endloop
   endfacet
   facet normal -3.8302476e-02 9.9925946e-01 -3.6677239e-03
      outer loop
         vertex 1.1980849e+02 8.4996331e+01 4.0000010e+00
         vertex 1.2019151e+02 8.4996331e+01 1.0000000e-06
         vertex 1.1942658e+02 8.4967010e+01 1.0000000e-06
      endloop
   endfacet
   facet normal -1.1468265e-01 9.9339541e-01 3.6677239e-03
      outer loop
         vertex 1.1980849e+02 8.4996331e+01 4.0000010e+00
         vertex 1.1942658e+02 8.4967010e+01 1.0000000e-06
         vertex 1.1904804e+02 8.4908542e+01 4.0000010e+00
      endloop
   endfacet
   facet normal -1.9038983e-01 9.8170172e-01 -3.6677239e-03
      outer loop
         vertex 1.1904804e+02 8.4908542e+01 4.0000010e+00
         vertex 1.1942658e+02 8.4967010e+01 1.0000000e-06
         vertex 1.1867509e+02 8.4821267e+01 1.0000000e-06
      endloop
   endfacet
   facet normal -2.6497972e-01 9.6424701e-01 3.6677239e-03
      outer loop
         vertex 1.1904804e+02 8.4908542e+01 4.0000010e+00
         vertex 1.1867509e+02 8.4821267e+01 1.0000000e-06
         vertex 1.1830992e+02 8.4705700e+01 4.0000010e+00
      endloop
   endfacet
   facet normal -3.3801460e-01 9.4113372e-01 -3.6677239e-03
      outer loop
         vertex 1.1830992e+02 8.4705700e+01 4.0000010e+00
         vertex 1.1867509e+02 8.4821267e+01 1.0000000e-06
         vertex 1.1795466e+02 8.4562518e+01 1.0000000e-06
      endloop
   endfacet
   facet normal -4.0906589e-01 9.1249748e-01 3.6677239e-03
      outer loop
         vertex 1.1830992e+02 8.4705700e+01 4.0000010e+00
         vertex 1.1795466e+02 8.4562518e+01 1.0000000e-06
         vertex 1.1761140e+02 8.4392561e+01 4.0000010e+00
      endloop
   endfacet
   facet normal -4.7771661e-01 8.7850634e-01 -3.6677239e-03
      outer loop
         vertex 1.1761140e+02 8.4392561e+01 4.0000010e+00
         vertex 1.1795466e+02 8.4562518e+01 1.0000000e-06
         vertex 1.1728216e+02 8.4196827e+01 1.0000000e-06
      endloop
   endfacet
   facet normal -5.4356389e-01 8.3935978e-01 3.6677239e-03
      outer loop
         vertex 1.1761140e+02 8.4392561e+01 4.0000010e+00
         vertex 1.1728216e+02 8.4196827e+01 1.0000000e-06
         vertex 1.1696887e+02 8.3976464e+01 4.0000010e+00
      endloop
   endfacet
   facet normal -6.0622133e-01 7.9528752e-01 -3.6677239e-03
      outer loop
         vertex 1.1696887e+02 8.3976464e+01 4.0000010e+00
         vertex 1.1728216e+02 8.4196827e+01 1.0000000e-06
         vertex 1.1667337e+02 8.3732766e+01 1.0000000e-06
      endloop
   endfacet
   facet normal -6.6532123e-01 7.4654820e-01 3.6677239e-03
      outer loop
         vertex 1.1696887e+02 8.3976464e+01 4.0000010e+00
         vertex 1.1667337e+02 8.3732766e+01 1.0000000e-06
         vertex 1.1639739e+02 8.3467163e+01 4.0000010e+00
      endloop
   endfacet
   facet normal -7.2051675e-01 6.9342784e-01 -3.6677239e-03
      outer loop
         vertex 1.1639739e+02 8.3467163e+01 4.0000010e+00
         vertex 1.1667337e+02 8.3732766e+01 1.0000000e-06
         vertex 1.1614255e+02 8.3181212e+01 1.0000000e-06
      endloop
   endfacet
   facet normal -7.7148399e-01 6.3623816e-01 3.6677239e-03
      outer loop
         vertex 1.1639739e+02 8.3467163e+01 4.0000010e+00
         vertex 1.1614255e+02 8.3181212e+01 1.0000000e-06
         vertex 1.1591035e+02 8.2876593e+01 4.0000010e+00
      endloop
   endfacet
   facet normal -8.1792386e-01 5.7531479e-01 -3.6677239e-03
      outer loop
         vertex 1.1591035e+02 8.2876593e+01 4.0000010e+00
         vertex 1.1614255e+02 8.3181212e+01 1.0000000e-06
         vertex 1.1570215e+02 8.2555093e+01 1.0000000e-06
      endloop
   endfacet
   facet normal -8.5956383e-01 5.1101524e-01 3.6677239e-03
      outer loop
         vertex 1.1591035e+02 8.2876593e+01 4.0000010e+00
         vertex 1.1570215e+02 8.2555093e+01 1.0000000e-06
         vertex 1.1551917e+02 8.2218599e+01 4.0000010e+00
      endloop
   endfacet
   facet normal -8.9615953e-01 4.4371685e-01 -3.6677239e-03
      outer loop
         vertex 1.1551917e+02 8.2218599e+01 4.0000010e+00
         vertex 1.1570215e+02 8.2555093e+01 1.0000000e-06
         vertex 1.1536249e+02 8.1869085e+01 1.0000000e-06
      endloop
   endfacet
   facet normal -9.2749621e-01 3.7381456e-01 3.6677239e-03
      outer loop
         vertex 1.1551917e+02 8.2218599e+01 4.0000010e+00
         vertex 1.1536249e+02 8.1869085e+01 1.0000000e-06
         vertex 1.1523302e+02 8.1508603e+01 4.0000010e+00
      endloop
   endfacet
   facet normal -9.5338998e-01 3.0171857e-01 -3.6677239e-03
      outer loop
         vertex 1.1523302e+02 8.1508603e+01 4.0000010e+00
         vertex 1.1536249e+02 8.1869085e+01 1.0000000e-06
         vertex 1.1513152e+02 8.1139268e+01 1.0000000e-06
      endloop
   endfacet
   facet normal -9.7368887e-01 2.2785198e-01 3.6677239e-03
      outer loop
         vertex 1.1523302e+02 8.1508603e+01 4.0000010e+00
         vertex 1.1513152e+02 8.1139268e+01 1.0000000e-06
         vertex 1.1505860e+02 8.0763246e+01 4.0000010e+00
      endloop
   endfacet
   facet normal -9.8827378e-01 1.5264826e-01 -3.6677239e-03
      outer loop
         vertex 1.1505860e+02 8.0763246e+01 4.0000010e+00
         vertex 1.1513152e+02 8.1139268e+01 1.0000000e-06
         vertex 1.1501467e+02 8.0382746e+01 1.0000000e-06
      endloop
   endfacet
   facet normal 0.0000000e+00 -0.0000000e+00 1.0000000e+00
      outer loop
         vertex 1.2194188e+02 7.9521369e+01 4.0000010e+00
         vertex 1.2498533e+02 7.9617254e+01 4.0000010e+00
         vertex 1.2200000e+02 8.0000000e+01 4.0000010e+00
      endloop
   endfacet
   facet normal -0.0000000e+00 0.0000000e+00 1.0000000e+00
      outer loop
         vertex 1.2200000e+02 8.0000000e+01 4.0000010e+00
         vertex 1.2498533e+02 7.9617254e+01 4.0000010e+00
         vertex 1.2498533e+02 8.0382746e+01 4.0000010e+00
      endloop
   endfacet
   facet normal 0.0000000e+00 -0.0000000e+00 1.0000000e+00
      outer loop
         vertex 1.2200000e+02 8.0000000e+01 4.0000010e+00
         vertex 1.2498533e+02 8.0382746e+01 4.0000010e+00
         vertex 1.2194188e+02 8.0478631e+01 4.0000010e+00
      endloop
   endfacet
   facet normal -0.0000000e+00 -0.0000000e+00 1.0000000e+00
      outer loop
         vertex 1.2194188e+02 8.0478631e+01 4.0000010e+00
         vertex 1.2498533e+02 8.0382746e+01 4.0000010e+00
         vertex 1.2486848e+02 8.1139268e+01 4.0000010e+00
      endloop
   endfacet
   facet normal 0.0000000e+00 -0.0000000e+00 1.0000000e+00
      outer loop
         vertex 1.2194188e+02 8.0478631e+01 4.0000010e+00
         vertex 1.2486848e+02 8.1139268e+01 4.0000010e+00
         vertex 1.2463751e+02 8.1869085e+01 4.0000010e+00
      endloop
   endfacet
   facet normal -0.0000000e+00 -0.0000000e+00 1.0000000e+00
      outer loop
         vertex 1.2177091e+02 7.9070554e+01 4.0000010e+00
         vertex 1.2463751e+02 7.8130915e+01 4.0000010e+00
         vertex 1.2194188e+02 7.9521369e+01 4.0000010e+00
      endloop
   endfacet
   facet normal -0.0000000e+00 0.0000000e+00 1.0000000e+00
      outer loop
         vertex 1.2194188e+02 7.9521369e+01 4.0000010e+00
         vertex 1.2463751e+02 7.8130915e+01 4.0000010e+00
         vertex 1.2486848e+02 7.8860732e+01 4.0000010e+00
      endloop
   endfacet
   facet normal -0.0000000e+00 0.0000000e+00 1.0000000e+00
      outer loop
         vertex 1.2194188e+02 7.9521369e+01 4.0000010e+00
         vertex 1.2486848e+02 7.8860732e+01 4.0000010e+00
         vertex 1.2498533e+02 7.9617254e+01 4.0000010e+00
      endloop
   endfacet
   facet normal 0.0000000e+00 0.0000000e+00 1.0000000e+00
      outer loop
         vertex 1.2463751e+02 7.8130915e+01 4.0000010e+00
         vertex 1.2177091e+02 7.9070554e+01 4.0000010e+00
         vertex 1.2429785e+02 7.7444907e+01 4.0000010e+00
      endloop
   endfacet
   facet normal 0.0000000e+00 0.0000000e+00 1.0000000e+00
      outer loop
         vertex 1.2429785e+02 7.7444907e+01 4.0000010e+00
         vertex 1.2177091e+02 7.9070554e+01 4.0000010e+00
         vertex 1.2149702e+02 7.8673755e+01 4.0000010e+00
      endloop
   endfacet
   facet normal 0.0000000e+00 0.0000000e+00 1.0000000e+00
      outer loop
         vertex 1.2429785e+02 7.7444907e+01 4.0000010e+00
         vertex 1.2149702e+02 7.8673755e+01 4.0000010e+00
         vertex 1.2385745e+02 7.6818788e+01 4.0000010e+00
      endloop
   endfacet
   facet normal 0.0000000e+00 0.0000000e+00 1.0000000e+00
      outer loop
         vertex 1.2385745e+02 7.6818788e+01 4.0000010e+00
         vertex 1.2149702e+02 7.8673755e+01 4.0000010e+00
         vertex 1.2332663e+02 7.6267234e+01 4.0000010e+00
      endloop
   endfacet
   facet normal 0.0000000e+00 0.0000000e+00 1.0000000e+00
      outer loop
         vertex 1.2332663e+02 7.6267234e+01 4.0000010e+00
         vertex 1.2149702e+02 7.8673755e+01 4.0000010e+00
         vertex 1.2113613e+02 7.8354032e+01 4.0000010e+00
      endloop
   endfacet
   facet normal 0.0000000e+00 0.0000000e+00 1.0000000e+00
      outer loop
         vertex 1.2332663e+02 7.6267234e+01 4.0000010e+00
         vertex 1.2113613e+02 7.8354032e+01 4.0000010e+00
         vertex 1.2271784e+02 7.5803173e+01 4.0000010e+00
      endloop
   endfacet
   facet normal 0.0000000e+00 0.0000000e+00 1.0000000e+00
      outer loop
         vertex 1.2271784e+02 7.5803173e+01 4.0000010e+00
         vertex 1.2113613e+02 7.8354032e+01 4.0000010e+00
         vertex 1.2204534e+02 7.5437482e+01 4.0000010e+00
      endloop
   endfacet
   facet normal 0.0000000e+00 0.0000000e+00 1.0000000e+00
      outer loop
         vertex 1.2204534e+02 7.5437482e+01 4.0000010e+00
         vertex 1.2113613e+02 7.8354032e+01 4.0000010e+00
         vertex 1.2070921e+02 7.8129968e+01 4.0000010e+00
      endloop
   endfacet
   facet normal 0.0000000e+00 0.0000000e+00 1.0000000e+00
      outer loop
         vertex 1.2204534e+02 7.5437482e+01 4.0000010e+00
         vertex 1.2070921e+02 7.8129968e+01 4.0000010e+00
         vertex 1.2132491e+02 7.5178733e+01 4.0000010e+00
      endloop
   endfacet
   facet normal 0.0000000e+00 0.0000000e+00 1.0000000e+00
      outer loop
         vertex 1.2132491e+02 7.5178733e+01 4.0000010e+00
         vertex 1.2070921e+02 7.8129968e+01 4.0000010e+00
         vertex 1.2024107e+02 7.8014582e+01 4.0000010e+00
      endloop
   endfacet
   facet normal 0.0000000e+00 0.0000000e+00 1.0000000e+00
      outer loop
         vertex 1.2132491e+02 7.5178733e+01 4.0000010e+00
         vertex 1.2024107e+02 7.8014582e+01 4.0000010e+00
         vertex 1.2057342e+02 7.5032990e+01 4.0000010e+00
      endloop
   endfacet
   facet normal 0.0000000e+00 0.0000000e+00 1.0000000e+00
      outer loop
         vertex 1.2057342e+02 7.5032990e+01 4.0000010e+00
         vertex 1.2024107e+02 7.8014582e+01 4.0000010e+00
         vertex 1.1980849e+02 7.5003669e+01 4.0000010e+00
      endloop
   endfacet
   facet normal 0.0000000e+00 -0.0000000e+00 1.0000000e+00
      outer loop
         vertex 1.1980849e+02 7.5003669e+01 4.0000010e+00
         vertex 1.2024107e+02 7.8014582e+01 4.0000010e+00
         vertex 1.1975893e+02 7.8014582e+01 4.0000010e+00
      endloop
   endfacet
   facet normal 0.0000000e+00 0.0000000e+00 1.0000000e+00
      outer loop
         vertex 1.1980849e+02 7.5003669e+01 4.0000010e+00
         vertex 1.1975893e+02 7.8014582e+01 4.0000010e+00
         vertex 1.1904804e+02 7.5091458e+01 4.0000010e+00
      endloop
   endfacet
   facet normal 0.0000000e+00 -0.0000000e+00 1.0000000e+00
      outer loop
         vertex 1.1904804e+02 7.5091458e+01 4.0000010e+00
         vertex 1.1975893e+02 7.8014582e+01 4.0000010e+00
         vertex 1.1929079e+02 7.8129968e+01 4.0000010e+00
      endloop
   endfacet
   facet normal 0.0000000e+00 -0.0000000e+00 1.0000000e+00
      outer loop
         vertex 1.1904804e+02 7.5091458e+01 4.0000010e+00
         vertex 1.1929079e+02 7.8129968e+01 4.0000010e+00
         vertex 1.1830992e+02 7.5294300e+01 4.0000010e+00
      endloop
   endfacet
   facet normal 0.0000000e+00 -0.0000000e+00 1.0000000e+00
      outer loop
         vertex 1.1830992e+02 7.5294300e+01 4.0000010e+00
         vertex 1.1929079e+02 7.8129968e+01 4.0000010e+00
         vertex 1.1761140e+02 7.5607439e+01 4.0000010e+00
      endloop
   endfacet
   facet normal 0.0000000e+00 -0.0000000e+00 1.0000000e+00
      outer loop
         vertex 1.1761140e+02 7.5607439e+01 4.0000010e+00
         vertex 1.1929079e+02 7.8129968e+01 4.0000010e+00
         vertex 1.1886387e+02 7.8354032e+01 4.0000010e+00
      endloop
   endfacet
   facet normal 0.0000000e+00 -0.0000000e+00 1.0000000e+00
      outer loop
         vertex 1.1761140e+02 7.5607439e+01 4.0000010e+00
         vertex 1.1886387e+02 7.8354032e+01 4.0000010e+00
         vertex 1.1696887e+02 7.6023536e+01 4.0000010e+00
      endloop
   endfacet
   facet normal 0.0000000e+00 -0.0000000e+00 1.0000000e+00
      outer loop
         vertex 1.1696887e+02 7.6023536e+01 4.0000010e+00
         vertex 1.1886387e+02 7.8354032e+01 4.0000010e+00
         vertex 1.1850298e+02 7.8673755e+01 4.0000010e+00
      endloop
   endfacet
   facet normal 0.0000000e+00 -0.0000000e+00 1.0000000e+00
      outer loop
         vertex 1.1696887e+02 7.6023536e+01 4.0000010e+00
         vertex 1.1850298e+02 7.8673755e+01 4.0000010e+00
         vertex 1.1639739e+02 7.6532837e+01 4.0000010e+00
      endloop
   endfacet
   facet normal 0.0000000e+00 -0.0000000e+00 1.0000000e+00
      outer loop
         vertex 1.1639739e+02 7.6532837e+01 4.0000010e+00
         vertex 1.1850298e+02 7.8673755e+01 4.0000010e+00
         vertex 1.1591035e+02 7.7123407e+01 4.0000010e+00
      endloop
   endfacet
   facet normal 0.0000000e+00 -0.0000000e+00 1.0000000e+00
      outer loop
         vertex 1.1591035e+02 7.7123407e+01 4.0000010e+00
         vertex 1.1850298e+02 7.8673755e+01 4.0000010e+00
         vertex 1.1822909e+02 7.9070554e+01 4.0000010e+00
      endloop
   endfacet
   facet normal 0.0000000e+00 -0.0000000e+00 1.0000000e+00
      outer loop
         vertex 1.1591035e+02 7.7123407e+01 4.0000010e+00
         vertex 1.1822909e+02 7.9070554e+01 4.0000010e+00
         vertex 1.1551917e+02 7.7781401e+01 4.0000010e+00
      endloop
   endfacet
   facet normal 0.0000000e+00 -0.0000000e+00 1.0000000e+00
      outer loop
         vertex 1.1551917e+02 7.7781401e+01 4.0000010e+00
         vertex 1.1822909e+02 7.9070554e+01 4.0000010e+00
         vertex 1.1523302e+02 7.8491397e+01 4.0000010e+00
      endloop
   endfacet
   facet normal 0.0000000e+00 -0.0000000e+00 1.0000000e+00
      outer loop
         vertex 1.1523302e+02 7.8491397e+01 4.0000010e+00
         vertex 1.1822909e+02 7.9070554e+01 4.0000010e+00
         vertex 1.1805812e+02 7.9521369e+01 4.0000010e+00
      endloop
   endfacet
   facet normal 0.0000000e+00 -0.0000000e+00 1.0000000e+00
      outer loop
         vertex 1.1523302e+02 7.8491397e+01 4.0000010e+00
         vertex 1.1805812e+02 7.9521369e+01 4.0000010e+00
         vertex 1.1505860e+02 7.9236754e+01 4.0000010e+00
      endloop
   endfacet
   facet normal 0.0000000e+00 -0.0000000e+00 1.0000000e+00
      outer loop
         vertex 1.1505860e+02 7.9236754e+01 4.0000010e+00
         vertex 1.1805812e+02 7.9521369e+01 4.0000010e+00
         vertex 1.1800000e+02 8.0000000e+01 4.0000010e+00
      endloop
   endfacet
   facet normal 0.0000000e+00 -0.0000000e+00 1.0000000e+00
      outer loop
         vertex 1.1505860e+02 7.9236754e+01 4.0000010e+00
         vertex 1.1800000e+02 8.0000000e+01 4.0000010e+00
         vertex 1.1500000e+02 8.0000000e+01 4.0000010e+00
      endloop
   endfacet
   facet normal 0.0000000e+00 -0.0000000e+00 1.0000000e+00
      outer loop
         vertex 1.1500000e+02 8.0000000e+01 4.0000010e+00
         vertex 1.1800000e+02 8.0000000e+01 4.0000010e+00
         vertex 1.1505860e+02 8.0763246e+01 4.0000010e+00
      endloop
   endfacet
   facet normal -0.0000000e+00 0.0000000e+00 1.0000000e+00
      outer loop
         vertex 1.1505860e+02 8.0763246e+01 4.0000010e+00
         vertex 1.1800000e+02 8.0000000e+01 4.0000010e+00
         vertex 1.1805812e+02 8.0478631e+01 4.0000010e+00
      endloop
   endfacet
   facet normal -0.0000000e+00 -0.0000000e+00 1.0000000e+00
      outer loop
         vertex 1.1505860e+02 8.0763246e+01 4.0000010e+00
         vertex 1.1805812e+02 8.0478631e+01 4.0000010e+00
         vertex 1.1523302e+02 8.1508603e+01 4.0000010e+00
      endloop
   endfacet
   facet normal -0.0000000e+00 0.0000000e+00 1.0000000e+00
      outer loop
         vertex 1.1523302e+02 8.1508603e+01 4.0000010e+00
         vertex 1.1805812e+02 8.0478631e+01 4.0000010e+00
         vertex 1.1822909e+02 8.0929446e+01 4.0000010e+00
      endloop
   endfacet
   facet normal -0.0000000e+00 -0.0000000e+00 1.0000000e+00
      outer loop
         vertex 1.1523302e+02 8.1508603e+01 4.0000010e+00
         vertex 1.1822909e+02 8.0929446e+01 4.0000010e+00
         vertex 1.1551917e+02 8.2218599e+01 4.0000010e+00
      endloop
   endfacet
   facet normal -0.0000000e+00 -0.0000000e+00 1.0000000e+00
      outer loop
         vertex 1.1551917e+02 8.2218599e+01 4.0000010e+00
         vertex 1.1822909e+02 8.0929446e+01 4.0000010e+00
         vertex 1.1591035e+02 8.2876593e+01 4.0000010e+00
      endloop
   endfacet
   facet normal -0.0000000e+00 0.0000000e+00 1.0000000e+00
      outer loop
         vertex 1.1591035e+02 8.2876593e+01 4.0000010e+00
         vertex 1.1822909e+02 8.0929446e+01 4.0000010e+00
         vertex 1.1850298e+02 8.1326245e+01 4.0000010e+00
      endloop
   endfacet
   facet normal -0.0000000e+00 -0.0000000e+00 1.0000000e+00
      outer loop
         vertex 1.1591035e+02 8.2876593e+01 4.0000010e+00
         vertex 1.1850298e+02 8.1326245e+01 4.0000010e+00
         vertex 1.1639739e+02 8.3467163e+01 4.0000010e+00
      endloop
   endfacet
   facet normal -0.0000000e+00 -0.0000000e+00 1.0000000e+00
      outer loop
         vertex 1.1639739e+02 8.3467163e+01 4.0000010e+00
         vertex 1.1850298e+02 8.1326245e+01 4.0000010e+00
         vertex 1.1696887e+02 8.3976464e+01 4.0000010e+00
      endloop
   endfacet
   facet normal -0.0000000e+00 0.0000000e+00 1.0000000e+00
      outer loop
         vertex 1.1696887e+02 8.3976464e+01 4.0000010e+00
         vertex 1.1850298e+02 8.1326245e+01 4.0000010e+00
         vertex 1.1886387e+02 8.1645968e+01 4.0000010e+00
      endloop
   endfacet
   facet normal -0.0000000e+00 -0.0000000e+00 1.0000000e+00
      outer loop
         vertex 1.1696887e+02 8.3976464e+01 4.0000010e+00
         vertex 1.1886387e+02 8.1645968e+01 4.0000010e+00
         vertex 1.1761140e+02 8.4392561e+01 4.0000010e+00
      endloop
   endfacet
   facet normal -0.0000000e+00 0.0000000e+00 1.0000000e+00
      outer loop
         vertex 1.1761140e+02 8.4392561e+01 4.0000010e+00
         vertex 1.1886387e+02 8.1645968e+01 4.0000010e+00
         vertex 1.1929079e+02 8.1870032e+01 4.0000010e+00
      endloop
   endfacet
   facet normal -0.0000000e+00 -0.0000000e+00 1.0000000e+00
      outer loop
         vertex 1.1761140e+02 8.4392561e+01 4.0000010e+00
         vertex 1.1929079e+02 8.1870032e+01 4.0000010e+00
         vertex 1.1830992e+02 8.4705700e+01 4.0000010e+00
      endloop
   endfacet
   facet normal -0.0000000e+00 -0.0000000e+00 1.0000000e+00
      outer loop
         vertex 1.1830992e+02 8.4705700e+01 4.0000010e+00
         vertex 1.1929079e+02 8.1870032e+01 4.0000010e+00
         vertex 1.1904804e+02 8.4908542e+01 4.0000010e+00
      endloop
   endfacet
   facet normal -0.0000000e+00 0.0000000e+00 1.0000000e+00
      outer loop
         vertex 1.1904804e+02 8.4908542e+01 4.0000010e+00
         vertex 1.1929079e+02 8.1870032e+01 4.0000010e+00
         vertex 1.1975893e+02 8.1985418e+01 4.0000010e+00
      endloop
   endfacet
   facet normal -0.0000000e+00 0.0000000e+00 1.0000000e+00
      outer loop
         vertex 1.1904804e+02 8.4908542e+01 4.0000010e+00
         vertex 1.1975893e+02 8.1985418e+01 4.0000010e+00
         vertex 1.1980849e+02 8.4996331e+01 4.0000010e+00
      endloop
   endfacet
   facet normal -0.0000000e+00 0.0000000e+00 1.0000000e+00
      outer loop
         vertex 1.1980849e+02 8.4996331e+01 4.0000010e+00
         vertex 1.1975893e+02 8.1985418e+01 4.0000010e+00
         vertex 1.2024107e+02 8.1985418e+01 4.0000010e+00
      endloop
   endfacet
   facet normal -0.0000000e+00 0.0000000e+00 1.0000000e+00
      outer loop
         vertex 1.1980849e+02 8.4996331e+01 4.0000010e+00
         vertex 1.2024107e+02 8.1985418e+01 4.0000010e+00
         vertex 1.2057342e+02 8.4967010e+01 4.0000010e+00
      endloop
   endfacet
   facet normal -0.0000000e+00 0.0000000e+00 1.0000000e+00
      outer loop
         vertex 1.2057342e+02 8.4967010e+01 4.0000010e+00
         vertex 1.2024107e+02 8.1985418e+01 4.0000010e+00
         vertex 1.2132491e+02 8.4821267e+01 4.0000010e+00
      endloop
   endfacet
   facet normal 0.0000000e+00 0.0000000e+00 1.0000000e+00
      outer loop
         vertex 1.2132491e+02 8.4821267e+01 4.0000010e+00
         vertex 1.2024107e+02 8.1985418e+01 4.0000010e+00
         vertex 1.2070921e+02 8.1870032e+01 4.0000010e+00
      endloop
   endfacet
   facet normal -0.0000000e+00 0.0000000e+00 1.0000000e+00
      outer loop
         vertex 1.2132491e+02 8.4821267e+01 4.0000010e+00
         vertex 1.2070921e+02 8.1870032e+01 4.0000010e+00
         vertex 1.2204534e+02 8.4562518e+01 4.0000010e+00
      endloop
   endfacet
   facet normal 0.0000000e+00 0.0000000e+00 1.0000000e+00
      outer loop
         vertex 1.2204534e+02 8.4562518e+01 4.0000010e+00
         vertex 1.2070921e+02 8.1870032e+01 4.0000010e+00
         vertex 1.2113613e+02 8.1645968e+01 4.0000010e+00
      endloop
   endfacet
   facet normal -0.0000000e+00 0.0000000e+00 1.0000000e+00
      outer loop
         vertex 1.2204534e+02 8.4562518e+01 4.0000010e+00
         vertex 1.2113613e+02 8.1645968e+01 4.0000010e+00
         vertex 1.2271784e+02 8.4196827e+01 4.0000010e+00
      endloop
   endfacet
   facet normal -0.0000000e+00 0.0000000e+00 1.0000000e+00
      outer loop
         vertex 1.2271784e+02 8.4196827e+01 4.0000010e+00
         vertex 1.2113613e+02 8.1645968e+01 4.0000010e+00
         vertex 1.2332663e+02 8.3732766e+01 4.0000010e+00
      endloop
   endfacet
   facet normal 0.0000000e+00 0.0000000e+00 1.0000000e+00
      outer loop
         vertex 1.2332663e+02 8.3732766e+01 4.0000010e+00
         vertex 1.2113613e+02 8.1645968e+01 4.0000010e+00
         vertex 1.2149702e+02 8.1326245e+01 4.0000010e+00
      endloop
   endfacet
   facet normal -0.0000000e+00 0.0000000e+00 1.0000000e+00
      outer loop
         vertex 1.2332663e+02 8.3732766e+01 4.0000010e+00
         vertex 1.2149702e+02 8.1326245e+01 4.0000010e+00
         vertex 1.2385745e+02 8.3181212e+01 4.0000010e+00
      endloop
   endfacet
   facet normal -0.0000000e+00 0.0000000e+00 1.0000000e+00
      outer loop
         vertex 1.2385745e+02 8.3181212e+01 4.0000010e+00
         vertex 1.2149702e+02 8.1326245e+01 4.0000010e+00
         vertex 1.2429785e+02 8.2555093e+01 4.0000010e+00
      endloop
   endfacet
   facet normal 0.0000000e+00 0.0000000e+00 1.0000000e+00
      outer loop
         vertex 1.2429785e+02 8.2555093e+01 4.0000010e+00
         vertex 1.2149702e+02 8.1326245e+01 4.0000010e+00
         vertex 1.2177091e+02 8.0929446e+01 4.0000010e+00
      endloop
   endfacet
   facet normal -0.0000000e+00 0.0000000e+00 1.0000000e+00
      outer loop
         vertex 1.2429785e+02 8.2555093e+01 4.0000010e+00
         vertex 1.2177091e+02 8.0929446e+01 4.0000010e+00
         vertex 1.2463751e+02 8.1869085e+01 4.0000010e+00
      endloop
   endfacet
   facet normal 0.0000000e+00 0.0000000e+00 1.0000000e+00
      outer loop
         vertex 1.2463751e+02 8.1869085e+01 4.0000010e+00
         vertex 1.2177091e+02 8.0929446e+01 4.0000010e+00
         vertex 1.2194188e+02 8.0478631e+01 4.0000010e+00
      endloop
   endfacet
   facet normal 0.0000000e+00 -0.0000000e+00 -1.0000000e+00
      outer loop
         vertex 1.2194188e+02 8.0478631e+01 1.0000000e-06
         vertex 1.2494140e+02 8.0763246e+01 1.0000000e-06
         vertex 1.2200000e+02 8.0000000e+01 1.0000000e-06
      endloop
   endfacet
   facet normal 0.0000000e+00 0.0000000e+00 -1.0000000e+00
      outer loop
         vertex 1.2200000e+02 8.0000000e+01 1.0000000e-06
         vertex 1.2494140e+02 8.0763246e+01 1.0000000e-06
         vertex 1.2500000e+02 8.0000000e+01 1.0000000e-06
      endloop
   endfacet
   facet normal 0.0000000e+00 -0.0000000e+00 -1.0000000e+00
      outer loop
         vertex 1.2200000e+02 8.0000000e+01 1.0000000e-06
         vertex 1.2500000e+02 8.0000000e+01 1.0000000e-06
         vertex 1.2494140e+02 7.9236754e+01 1.0000000e-06
      endloop
   endfacet
   facet normal -0.0000000e+00 0.0000000e+00 -1.0000000e+00
      outer loop
         vertex 1.2494140e+02 8.0763246e+01 1.0000000e-06
         vertex 1.2194188e+02 8.0478631e+01 1.0000000e-06
         vertex 1.2476698e+02 8.1508603e+01 1.0000000e-06
      endloop
   endfacet
   facet normal -0.0000000e+00 0.0000000e+00 -1.0000000e+00
      outer loop
         vertex 1.2476698e+02 8.1508603e+01 1.0000000e-06
         vertex 1.2194188e+02 8.0478631e+01 1.0000000e-06
         vertex 1.2177091e+02 8.0929446e+01 1.0000000e-06
      endloop
   endfacet
   facet normal -0.0000000e+00 0.0000000e+00 -1.0000000e+00
      outer loop
         vertex 1.2476698e+02 8.1508603e+01 1.0000000e-06
         vertex 1.2177091e+02 8.0929446e+01 1.0000000e-06
         vertex 1.2448083e+02 8.2218599e+01 1.0000000e-06
      endloop
   endfacet
   facet normal -0.0000000e+00 0.0000000e+00 -1.0000000e+00
      outer loop
         vertex 1.2448083e+02 8.2218599e+01 1.0000000e-06
         vertex 1.2177091e+02 8.0929446e+01 1.0000000e-06
         vertex 1.2408965e+02 8.2876593e+01 1.0000000e-06
      endloop
   endfacet
   facet normal -0.0000000e+00 0.0000000e+00 -1.0000000e+00
      outer loop
         vertex 1.2408965e+02 8.2876593e+01 1.0000000e-06
         vertex 1.2177091e+02 8.0929446e+01 1.0000000e-06
         vertex 1.2149702e+02 8.1326245e+01 1.0000000e-06
      endloop
   endfacet
   facet normal -0.0000000e+00 0.0000000e+00 -1.0000000e+00
      outer loop
         vertex 1.2408965e+02 8.2876593e+01 1.0000000e-06
         vertex 1.2149702e+02 8.1326245e+01 1.0000000e-06
         vertex 1.2360261e+02 8.3467163e+01 1.0000000e-06
      endloop
   endfacet
   facet normal -0.0000000e+00 0.0000000e+00 -1.0000000e+00
      outer loop
         vertex 1.2360261e+02 8.3467163e+01 1.0000000e-06
         vertex 1.2149702e+02 8.1326245e+01 1.0000000e-06
         vertex 1.2303113e+02 8.3976464e+01 1.0000000e-06
      endloop
   endfacet
   facet normal -0.0000000e+00 0.0000000e+00 -1.0000000e+00
      outer loop
         vertex 1.2303113e+02 8.3976464e+01 1.0000000e-06
         vertex 1.2149702e+02 8.1326245e+01 1.0000000e-06
         vertex 1.2113613e+02 8.1645968e+01 1.0000000e-06
      endloop
   endfacet
   facet normal -0.0000000e+00 0.0000000e+00 -1.0000000e+00
      outer loop
         vertex 1.2303113e+02 8.3976464e+01 1.0000000e-06
         vertex 1.2113613e+02 8.1645968e+01 1.0000000e-06
         vertex 1.2238860e+02 8.4392561e+01 1.0000000e-06
      endloop
   endfacet
   facet normal -0.0000000e+00 0.0000000e+00 -1.0000000e+00
      outer loop
         vertex 1.2238860e+02 8.4392561e+01 1.0000000e-06
         vertex 1.2113613e+02 8.1645968e+01 1.0000000e-06
         vertex 1.2070921e+02 8.1870032e+01 1.0000000e-06
      endloop
   endfacet
   facet normal -0.0000000e+00 0.0000000e+00 -1.0000000e+00
      outer loop
         vertex 1.2238860e+02 8.4392561e+01 1.0000000e-06
         vertex 1.2070921e+02 8.1870032e+01 1.0000000e-06
         vertex 1.2169008e+02 8.4705700e+01 1.0000000e-06
      endloop
   endfacet
   facet normal -0.0000000e+00 0.0000000e+00 -1.0000000e+00
      outer loop
         vertex 1.2169008e+02 8.4705700e+01 1.0000000e-06
         vertex 1.2070921e+02 8.1870032e+01 1.0000000e-06
         vertex 1.2095196e+02 8.4908542e+01 1.0000000e-06
      endloop
   endfacet
   facet normal -0.0000000e+00 0.0000000e+00 -1.0000000e+00
      outer loop
         vertex 1.2095196e+02 8.4908542e+01 1.0000000e-06
         vertex 1.2070921e+02 8.1870032e+01 1.0000000e-06
         vertex 1.2024107e+02 8.1985418e+01 1.0000000e-06
      endloop
   endfacet
   facet normal -0.0000000e+00 0.0000000e+00 -1.0000000e+00
      outer loop
         vertex 1.2095196e+02 8.4908542e+01 1.0000000e-06
         vertex 1.2024107e+02 8.1985418e+01 1.0000000e-06
         vertex 1.2019151e+02 8.4996331e+01 1.0000000e-06
      endloop
   endfacet
   facet normal -0.0000000e+00 -0.0000000e+00 -1.0000000e+00
      outer loop
         vertex 1.2019151e+02 8.4996331e+01 1.0000000e-06
         vertex 1.2024107e+02 8.1985418e+01 1.0000000e-06
         vertex 1.1975893e+02 8.1985418e+01 1.0000000e-06
      endloop
   endfacet
   facet normal -0.0000000e+00 0.0000000e+00 -1.0000000e+00
      outer loop
         vertex 1.2019151e+02 8.4996331e+01 1.0000000e-06
         vertex 1.1975893e+02 8.1985418e+01 1.0000000e-06
         vertex 1.1942658e+02 8.4967010e+01 1.0000000e-06
      endloop
   endfacet
   facet normal -0.0000000e+00 -0.0000000e+00 -1.0000000e+00
      outer loop
         vertex 1.1942658e+02 8.4967010e+01 1.0000000e-06
         vertex 1.1975893e+02 8.1985418e+01 1.0000000e-06
         vertex 1.1867509e+02 8.4821267e+01 1.0000000e-06
      endloop
   endfacet
   facet normal 0.0000000e+00 -0.0000000e+00 -1.0000000e+00
      outer loop
         vertex 1.1867509e+02 8.4821267e+01 1.0000000e-06
         vertex 1.1975893e+02 8.1985418e+01 1.0000000e-06
         vertex 1.1929079e+02 8.1870032e+01 1.0000000e-06
      endloop
   endfacet
   facet normal -0.0000000e+00 -0.0000000e+00 -1.0000000e+00
      outer loop
         vertex 1.1867509e+02 8.4821267e+01 1.0000000e-06
         vertex 1.1929079e+02 8.1870032e+01 1.0000000e-06
         vertex 1.1795466e+02 8.4562518e+01 1.0000000e-06
      endloop
   endfacet
   facet normal 0.0000000e+00 -0.0000000e+00 -1.0000000e+00
      outer loop
         vertex 1.1795466e+02 8.4562518e+01 1.0000000e-06
         vertex 1.1929079e+02 8.1870032e+01 1.0000000e-06
         vertex 1.1886387e+02 8.1645968e+01 1.0000000e-06
      endloop
   endfacet
   facet normal -0.0000000e+00 -0.0000000e+00 -1.0000000e+00
      outer loop
         vertex 1.1795466e+02 8.4562518e+01 1.0000000e-06
         vertex 1.1886387e+02 8.1645968e+01 1.0000000e-06
         vertex 1.1728216e+02 8.4196827e+01 1.0000000e-06
      endloop
   endfacet
   facet normal -0.0000000e+00 -0.0000000e+00 -1.0000000e+00
      outer loop
         vertex 1.1728216e+02 8.4196827e+01 1.0000000e-06
         vertex 1.1886387e+02 8.1645968e+01 1.0000000e-06
         vertex 1.1667337e+02 8.3732766e+01 1.0000000e-06
      endloop
   endfacet
   facet normal 0.0000000e+00 -0.0000000e+00 -1.0000000e+00
      outer loop
         vertex 1.1667337e+02 8.3732766e+01 1.0000000e-06
         vertex 1.1886387e+02 8.1645968e+01 1.0000000e-06
         vertex 1.1850298e+02 8.1326245e+01 1.0000000e-06
      endloop
   endfacet
   facet normal -0.0000000e+00 -0.0000000e+00 -1.0000000e+00
      outer loop
         vertex 1.1667337e+02 8.3732766e+01 1.0000000e-06
         vertex 1.1850298e+02 8.1326245e+01 1.0000000e-06
         vertex 1.1614255e+02 8.3181212e+01 1.0000000e-06
      endloop
   endfacet
   facet normal -0.0000000e+00 -0.0000000e+00 -1.0000000e+00
      outer loop
         vertex 1.1614255e+02 8.3181212e+01 1.0000000e-06
         vertex 1.1850298e+02 8.1326245e+01 1.0000000e-06
         vertex 1.1570215e+02 8.2555093e+01 1.0000000e-06
      endloop
   endfacet
   facet normal 0.0000000e+00 -0.0000000e+00 -1.0000000e+00
      outer loop
         vertex 1.1570215e+02 8.2555093e+01 1.0000000e-06
         vertex 1.1850298e+02 8.1326245e+01 1.0000000e-06
         vertex 1.1822909e+02 8.0929446e+01 1.0000000e-06
      endloop
   endfacet
   facet normal -0.0000000e+00 -0.0000000e+00 -1.0000000e+00
      outer loop
         vertex 1.1570215e+02 8.2555093e+01 1.0000000e-06
         vertex 1.1822909e+02 8.0929446e+01 1.0000000e-06
         vertex 1.1536249e+02 8.1869085e+01 1.0000000e-06
      endloop
   endfacet
   facet normal 0.0000000e+00 -0.0000000e+00 -1.0000000e+00
      outer loop
         vertex 1.1536249e+02 8.1869085e+01 1.0000000e-06
         vertex 1.1822909e+02 8.0929446e+01 1.0000000e-06
         vertex 1.1805812e+02 8.0478631e+01 1.0000000e-06
      endloop
   endfacet
   facet normal -0.0000000e+00 -0.0000000e+00 -1.0000000e+00
      outer loop
         vertex 1.1536249e+02 8.1869085e+01 1.0000000e-06
         vertex 1.1805812e+02 8.0478631e+01 1.0000000e-06
         vertex 1.1513152e+02 8.1139268e+01 1.0000000e-06
      endloop
   endfacet
   facet normal 0.0000000e+00 -0.0000000e+00 -1.0000000e+00
      outer loop
         vertex 1.1513152e+02 8.1139268e+01 1.0000000e-06
         vertex 1.1805812e+02 8.0478631e+01 1.0000000e-06
         vertex 1.1501467e+02 8.0382746e+01 1.0000000e-06
      endloop
   endfacet
   facet normal 0.0000000e+00 -0.0000000e+00 -1.0000000e+00
      outer loop
         vertex 1.1501467e+02 8.0382746e+01 1.0000000e-06
         vertex 1.1805812e+02 8.0478631e+01 1.0000000e-06
         vertex 1.1800000e+02 8.0000000e+01 1.0000000e-06
      endloop
   endfacet
   facet normal 0.0000000e+00 -0.0000000e+00 -1.0000000e+00
      outer loop
         vertex 1.1501467e+02 8.0382746e+01 1.0000000e-06
         vertex 1.1800000e+02 8.0000000e+01 1.0000000e-06
         vertex 1.1501467e+02 7.9617254e+01 1.0000000e-06
      endloop
   endfacet
   facet normal 0.0000000e+00 0.0000000e+00 -1.0000000e+00
      outer loop
         vertex 1.1501467e+02 7.9617254e+01 1.0000000e-06
         vertex 1.1800000e+02 8.0000000e+01 1.0000000e-06
         vertex 1.1805812e+02 7.9521369e+01 1.0000000e-06
      endloop
   endfacet
   facet normal 0.0000000e+00 -0.0000000e+00 -1.0000000e+00
      outer loop
         vertex 1.1501467e+02 7.9617254e+01 1.0000000e-06
         vertex 1.1805812e+02 7.9521369e+01 1.0000000e-06
         vertex 1.1513152e+02 7.8860732e+01 1.0000000e-06
      endloop
   endfacet
   facet normal 0.0000000e+00 -0.0000000e+00 -1.0000000e+00
      outer loop
         vertex 1.1513152e+02 7.8860732e+01 1.0000000e-06
         vertex 1.1805812e+02 7.9521369e+01 1.0000000e-06
         vertex 1.1536249e+02 7.8130915e+01 1.0000000e-06
      endloop
   endfacet
   facet normal 0.0000000e+00 0.0000000e+00 -1.0000000e+00
      outer loop
         vertex 1.1536249e+02 7.8130915e+01 1.0000000e-06
         vertex 1.1805812e+02 7.9521369e+01 1.0000000e-06
         vertex 1.1822909e+02 7.9070554e+01 1.0000000e-06
      endloop
   endfacet
   facet normal 0.0000000e+00 -0.0000000e+00 -1.0000000e+00
      outer loop
         vertex 1.1536249e+02 7.8130915e+01 1.0000000e-06
         vertex 1.1822909e+02 7.9070554e+01 1.0000000e-06
         vertex 1.1570215e+02 7.7444907e+01 1.0000000e-06
      endloop
   endfacet
   facet normal 0.0000000e+00 0.0000000e+00 -1.0000000e+00
      outer loop
         vertex 1.1570215e+02 7.7444907e+01 1.0000000e-06
         vertex 1.1822909e+02 7.9070554e+01 1.0000000e-06
         vertex 1.1850298e+02 7.8673755e+01 1.0000000e-06
      endloop
   endfacet
   facet normal 0.0000000e+00 -0.0000000e+00 -1.0000000e+00
      outer loop
         vertex 1.1570215e+02 7.7444907e+01 1.0000000e-06
         vertex 1.1850298e+02 7.8673755e+01 1.0000000e-06
         vertex 1.1614255e+02 7.6818788e+01 1.0000000e-06
      endloop
   endfacet
   facet normal 0.0000000e+00 -0.0000000e+00 -1.0000000e+00
      outer loop
         vertex 1.1614255e+02 7.6818788e+01 1.0000000e-06
         vertex 1.1850298e+02 7.8673755e+01 1.0000000e-06
         vertex 1.1667337e+02 7.6267234e+01 1.0000000e-06
      endloop
   endfacet
   facet normal 0.0000000e+00 0.0000000e+00 -1.0000000e+00
      outer loop
         vertex 1.1667337e+02 7.6267234e+01 1.0000000e-06
         vertex 1.1850298e+02 7.8673755e+01 1.0000000e-06
         vertex 1.1886387e+02 7.8354032e+01 1.0000000e-06
      endloop
   endfacet
   facet normal 0.0000000e+00 -0.0000000e+00 -1.0000000e+00
      outer loop
         vertex 1.1667337e+02 7.6267234e+01 1.0000000e-06
         vertex 1.1886387e+02 7.8354032e+01 1.0000000e-06
         vertex 1.1728216e+02 7.5803173e+01 1.0000000e-06
      endloop
   endfacet
   facet normal 0.0000000e+00 -0.0000000e+00 -1.0000000e+00
      outer loop
         vertex 1.1728216e+02 7.5803173e+01 1.0000000e-06
         vertex 1.1886387e+02 7.8354032e+01 1.0000000e-06
         vertex 1.1795466e+02 7.5437482e+01 1.0000000e-06
      endloop
   endfacet
   facet normal 0.0000000e+00 0.0000000e+00 -1.0000000e+00
      outer loop
         vertex 1.1795466e+02 7.5437482e+01 1.0000000e-06
         vertex 1.1886387e+02 7.8354032e+01 1.0000000e-06
         vertex 1.1929079e+02 7.8129968e+01 1.0000000e-06
      endloop
   endfacet
   facet normal 0.0000000e+00 -0.0000000e+00 -1.0000000e+00
      outer loop
         vertex 1.1795466e+02 7.5437482e+01 1.0000000e-06
         vertex 1.1929079e+02 7.8129968e+01 1.0000000e-06
         vertex 1.1867509e+02 7.5178733e+01 1.0000000e-06
      endloop
   endfacet
   facet normal 0.0000000e+00 0.0000000e+00 -1.0000000e+00
      outer loop
         vertex 1.1867509e+02 7.5178733e+01 1.0000000e-06
         vertex 1.1929079e+02 7.8129968e+01 1.0000000e-06
         vertex 1.1975893e+02 7.8014582e+01 1.0000000e-06
      endloop
   endfacet
   facet normal 0.0000000e+00 -0.0000000e+00 -1.0000000e+00
      outer loop
         vertex 1.1867509e+02 7.5178733e+01 1.0000000e-06
         vertex 1.1975893e+02 7.8014582e+01 1.0000000e-06
         vertex 1.1942658e+02 7.5032990e+01 1.0000000e-06
      endloop
   endfacet
   facet normal 0.0000000e+00 0.0000000e+00 -1.0000000e+00
      outer loop
         vertex 1.1942658e+02 7.5032990e+01 1.0000000e-06
         vertex 1.1975893e+02 7.8014582e+01 1.0000000e-06
         vertex 1.2019151e+02 7.5003669e+01 1.0000000e-06
      endloop
   endfacet
   facet normal 0.0000000e+00 0.0000000e+00 -1.0000000e+00
      outer loop
         vertex 1.2019151e+02 7.5003669e+01 1.0000000e-06
         vertex 1.1975893e+02 7.8014582e+01 1.0000000e-06
         vertex 1.2024107e+02 7.8014582e+01 1.0000000e-06
      endloop
   endfacet
   facet normal 0.0000000e+00 0.0000000e+00 -1.0000000e+00
      outer loop
         vertex 1.2019151e+02 7.5003669e+01 1.0000000e-06
         vertex 1.2024107e+02 7.8014582e+01 1.0000000e-06
         vertex 1.2095196e+02 7.5091458e+01 1.0000000e-06
      endloop
   endfacet
   facet normal 0.0000000e+00 0.0000000e+00 -1.0000000e+00
      outer loop
         vertex 1.2095196e+02 7.5091458e+01 1.0000000e-06
         vertex 1.2024107e+02 7.8014582e+01 1.0000000e-06
         vertex 1.2070921e+02 7.8129968e+01 1.0000000e-06
      endloop
   endfacet
   facet normal 0.0000000e+00 0.0000000e+00 -1.0000000e+00
      outer loop
         vertex 1.2095196e+02 7.5091458e+01 1.0000000e-06
         vertex 1.2070921e+02 7.8129968e+01 1.0000000e-06
         vertex 1.2169008e+02 7.5294300e+01 1.0000000e-06
      endloop
   endfacet
   facet normal 0.0000000e+00 0.0000000e+00 -1.0000000e+00
      outer loop
         vertex 1.2169008e+02 7.5294300e+01 1.0000000e-06
         vertex 1.2070921e+02 7.8129968e+01 1.0000000e-06
         vertex 1.2238860e+02 7.5607439e+01 1.0000000e-06
      endloop
   endfacet
   facet normal 0.0000000e+00 0.0000000e+00 -1.0000000e+00
      outer loop
         vertex 1.2238860e+02 7.5607439e+01 1.0000000e-06
         vertex 1.2070921e+02 7.8129968e+01 1.0000000e-06
         vertex 1.2113613e+02 7.8354032e+01 1.0000000e-06
      endloop
   endfacet
   facet normal 0.0000000e+00 0.0000000e+00 -1.0000000e+00
      outer loop
         vertex 1.2238860e+02 7.5607439e+01 1.0000000e-06
         vertex 1.2113613e+02 7.8354032e+01 1.0000000e-06
         vertex 1.2303113e+02 7.6023536e+01 1.0000000e-06
      endloop
   endfacet
   facet normal 0.0000000e+00 0.0000000e+00 -1.0000000e+00
      outer loop
         vertex 1.2303113e+02 7.6023536e+01 1.0000000e-06
         vertex 1.2113613e+02 7.8354032e+01 1.0000000e-06
         vertex 1.2149702e+02 7.8673755e+01 1.0000000e-06
      endloop
   endfacet
   facet normal 0.0000000e+00 0.0000000e+00 -1.0000000e+00
      outer loop
         vertex 1.2303113e+02 7.6023536e+01 1.0000000e-06
         vertex 1.2149702e+02 7.8673755e+01 1.0000000e-06
         vertex 1.2360261e+02 7.6532837e+01 1.0000000e-06
      endloop
   endfacet
   facet normal 0.0000000e+00 0.0000000e+00 -1.0000000e+00
      outer loop
         vertex 1.2360261e+02 7.6532837e+01 1.0000000e-06
         vertex 1.2149702e+02 7.8673755e+01 1.0000000e-06
         vertex 1.2408965e+02 7.7123407e+01 1.0000000e-06
      endloop
   endfacet
   facet normal 0.0000000e+00 0.0000000e+00 -1.0000000e+00
      outer loop
         vertex 1.2408965e+02 7.7123407e+01 1.0000000e-06
         vertex 1.2149702e+02 7.8673755e+01 1.0000000e-06
         vertex 1.2177091e+02 7.9070554e+01 1.0000000e-06
      endloop
   endfacet
   facet normal 0.0000000e+00 0.0000000e+00 -1.0000000e+00
      outer loop
         vertex 1.2408965e+02 7.7123407e+01 1.0000000e-06
         vertex 1.2177091e+02 7.9070554e+01 1.0000000e-06
         vertex 1.2448083e+02 7.7781401e+01 1.0000000e-06
      endloop
   endfacet
   facet normal 0.0000000e+00 0.0000000e+00 -1.0000000e+00
      outer loop
         vertex 1.2448083e+02 7.7781401e+01 1.0000000e-06
         vertex 1.2177091e+02 7.9070554e+01 1.0000000e-06
         vertex 1.2476698e+02 7.8491397e+01 1.0000000e-06
      endloop
   endfacet
   facet normal 0.0000000e+00 0.0000000e+00 -1.0000000e+00
      outer loop
         vertex 1.2476698e+02 7.8491397e+01 1.0000000e-06
         vertex 1.2177091e+02 7.9070554e+01 1.0000000e-06
         vertex 1.2194188e+02 7.9521369e+01 1.0000000e-06
      endloop
   endfacet
   facet normal 0.0000000e+00 0.0000000e+00 -1.0000000e+00
      outer loop
         vertex 1.2476698e+02 7.8491397e+01 1.0000000e-06
         vertex 1.2194188e+02 7.9521369e+01 1.0000000e-06
         vertex 1.2494140e+02 7.9236754e+01 1.0000000e-06
      endloop
   endfacet
   facet normal 0.0000000e+00 0.0000000e+00 -1.0000000e+00
      outer loop
         vertex 1.2494140e+02 7.9236754e+01 1.0000000e-06
         vertex 1.2194188e+02 7.9521369e+01 1.0000000e-06
         vertex 1.2200000e+02 8.0000000e+01 1.0000000e-06
      endloop
   endfacet
endsolid AutoCAD
